<svg width="40" height="40" viewBox="0 0 40 40" fill="none" xmlns="http://www.w3.org/2000/svg">
<rect width="40" height="40" rx="20" fill="#F2F4FC"/>
<path d="M24.19 10H15.81C12.17 10 10 12.17 10 15.81V24.18C10 27.83 12.17 30 15.81 30H24.18C27.82 30 29.99 27.83 29.99 24.19V15.81C30 12.17 27.83 10 24.19 10ZM24.82 18.82C24.53 19.11 24.05 19.11 23.76 18.82L20.75 15.81V26C20.75 26.41 20.41 26.75 20 26.75C19.59 26.75 19.25 26.41 19.25 26V15.81L16.24 18.82C15.95 19.11 15.47 19.11 15.18 18.82C15.03 18.67 14.96 18.48 14.96 18.29C14.96 18.1 15.04 17.9 15.18 17.76L19.47 13.47C19.61 13.33 19.8 13.25 20 13.25C20.2 13.25 20.39 13.33 20.53 13.47L24.82 17.76C25.11 18.05 25.11 18.52 24.82 18.82Z" fill="#3456D0"/>
</svg>
