<svg width="108" height="20" viewBox="0 0 108 20" fill="none" xmlns="http://www.w3.org/2000/svg">
<path d="M18.6875 7.60938C18.6092 7.36327 18.4585 7.14654 18.2549 6.98761C18.0514 6.82868 17.8046 6.73496 17.5468 6.71875L12.9062 6.39844L11.1875 2.0625C11.0936 1.82375 10.9303 1.61867 10.7185 1.47382C10.5068 1.32896 10.2565 1.25099 9.99997 1.25C9.74344 1.25099 9.49311 1.32896 9.28139 1.47382C9.06968 1.61867 8.90632 1.82375 8.81247 2.0625L7.06247 6.42188L2.45309 6.71875C2.19567 6.73601 1.94936 6.83012 1.74601 6.9889C1.54266 7.14768 1.39163 7.36383 1.31247 7.60938C1.23117 7.85869 1.22642 8.12664 1.29883 8.37868C1.37124 8.63072 1.51749 8.85529 1.71872 9.02344L5.26559 12.0234L4.2109 16.1719C4.13793 16.4525 4.15107 16.7486 4.24859 17.0217C4.34612 17.2948 4.52354 17.5322 4.75778 17.7031C4.98515 17.8663 5.25604 17.9579 5.53578 17.9663C5.81552 17.9746 6.0914 17.8993 6.32809 17.75L9.99216 15.4297H10.0078L13.9531 17.9219C14.1555 18.0534 14.3914 18.1239 14.6328 18.125C14.8299 18.1235 15.0239 18.0767 15.2001 17.9884C15.3763 17.9002 15.5299 17.7727 15.6491 17.6157C15.7683 17.4588 15.85 17.2766 15.8878 17.0832C15.9256 16.8898 15.9185 16.6903 15.8672 16.5L14.75 11.9609L18.2812 9.02344C18.4824 8.85529 18.6287 8.63072 18.7011 8.37868C18.7735 8.12664 18.7688 7.85869 18.6875 7.60938Z" fill="#FFC761"/>
<path d="M40.6875 7.60938C40.6092 7.36327 40.4585 7.14654 40.2549 6.98761C40.0514 6.82868 39.8046 6.73496 39.5468 6.71875L34.9062 6.39844L33.1875 2.0625C33.0936 1.82375 32.9303 1.61867 32.7185 1.47382C32.5068 1.32896 32.2565 1.25099 32 1.25C31.7434 1.25099 31.4931 1.32896 31.2814 1.47382C31.0697 1.61867 30.9063 1.82375 30.8125 2.0625L29.0625 6.42188L24.4531 6.71875C24.1957 6.73601 23.9494 6.83012 23.746 6.9889C23.5427 7.14768 23.3916 7.36383 23.3125 7.60938C23.2312 7.85869 23.2264 8.12664 23.2988 8.37868C23.3712 8.63072 23.5175 8.85529 23.7187 9.02344L27.2656 12.0234L26.2109 16.1719C26.1379 16.4525 26.1511 16.7486 26.2486 17.0217C26.3461 17.2948 26.5235 17.5322 26.7578 17.7031C26.9851 17.8663 27.256 17.9579 27.5358 17.9663C27.8155 17.9746 28.0914 17.8993 28.3281 17.75L31.9922 15.4297H32.0078L35.9531 17.9219C36.1555 18.0534 36.3914 18.1239 36.6328 18.125C36.8299 18.1235 37.0239 18.0767 37.2001 17.9884C37.3763 17.9002 37.5299 17.7727 37.6491 17.6157C37.7683 17.4588 37.85 17.2766 37.8878 17.0832C37.9256 16.8898 37.9185 16.6903 37.8672 16.5L36.75 11.9609L40.2812 9.02344C40.4824 8.85529 40.6287 8.63072 40.7011 8.37868C40.7735 8.12664 40.7688 7.85869 40.6875 7.60938Z" fill="#FFC761"/>
<path d="M62.6875 7.60938C62.6092 7.36327 62.4585 7.14654 62.2549 6.98761C62.0514 6.82868 61.8046 6.73496 61.5468 6.71875L56.9062 6.39844L55.1875 2.0625C55.0936 1.82375 54.9303 1.61867 54.7185 1.47382C54.5068 1.32896 54.2565 1.25099 54 1.25C53.7434 1.25099 53.4931 1.32896 53.2814 1.47382C53.0697 1.61867 52.9063 1.82375 52.8125 2.0625L51.0625 6.42188L46.4531 6.71875C46.1957 6.73601 45.9494 6.83012 45.746 6.9889C45.5427 7.14768 45.3916 7.36383 45.3125 7.60938C45.2312 7.85869 45.2264 8.12664 45.2988 8.37868C45.3712 8.63072 45.5175 8.85529 45.7187 9.02344L49.2656 12.0234L48.2109 16.1719C48.1379 16.4525 48.1511 16.7486 48.2486 17.0217C48.3461 17.2948 48.5235 17.5322 48.7578 17.7031C48.9851 17.8663 49.256 17.9579 49.5358 17.9663C49.8155 17.9746 50.0914 17.8993 50.3281 17.75L53.9922 15.4297H54.0078L57.9531 17.9219C58.1555 18.0534 58.3914 18.1239 58.6328 18.125C58.8299 18.1235 59.0239 18.0767 59.2001 17.9884C59.3763 17.9002 59.5299 17.7727 59.6491 17.6157C59.7683 17.4588 59.85 17.2766 59.8878 17.0832C59.9256 16.8898 59.9185 16.6903 59.8672 16.5L58.75 11.9609L62.2812 9.02344C62.4824 8.85529 62.6287 8.63072 62.7011 8.37868C62.7735 8.12664 62.7688 7.85869 62.6875 7.60938Z" fill="#FFC761"/>
<path d="M84.6875 7.60938C84.6092 7.36327 84.4585 7.14654 84.2549 6.98761C84.0514 6.82868 83.8046 6.73496 83.5468 6.71875L78.9062 6.39844L77.1875 2.0625C77.0936 1.82375 76.9303 1.61867 76.7185 1.47382C76.5068 1.32896 76.2565 1.25099 76 1.25C75.7434 1.25099 75.4931 1.32896 75.2814 1.47382C75.0697 1.61867 74.9063 1.82375 74.8125 2.0625L73.0625 6.42188L68.4531 6.71875C68.1957 6.73601 67.9494 6.83012 67.746 6.9889C67.5427 7.14768 67.3916 7.36383 67.3125 7.60938C67.2312 7.85869 67.2264 8.12664 67.2988 8.37868C67.3712 8.63072 67.5175 8.85529 67.7187 9.02344L71.2656 12.0234L70.2109 16.1719C70.1379 16.4525 70.1511 16.7486 70.2486 17.0217C70.3461 17.2948 70.5235 17.5322 70.7578 17.7031C70.9851 17.8663 71.256 17.9579 71.5358 17.9663C71.8155 17.9746 72.0914 17.8993 72.3281 17.75L75.9922 15.4297H76.0078L79.9531 17.9219C80.1555 18.0534 80.3914 18.1239 80.6328 18.125C80.8299 18.1235 81.0239 18.0767 81.2001 17.9884C81.3763 17.9002 81.5299 17.7727 81.6491 17.6157C81.7683 17.4588 81.85 17.2766 81.8878 17.0832C81.9256 16.8898 81.9185 16.6903 81.8672 16.5L80.75 11.9609L84.2812 9.02344C84.4824 8.85529 84.6287 8.63072 84.7011 8.37868C84.7735 8.12664 84.7688 7.85869 84.6875 7.60938Z" fill="#FFC761"/>
<path d="M106.687 7.60848C106.609 7.36237 106.458 7.14564 106.255 6.98671C106.051 6.82778 105.805 6.73407 105.547 6.71786L100.937 6.42098C100.931 6.42016 100.924 6.41756 100.919 6.41345C100.913 6.40934 100.909 6.40385 100.906 6.39754L99.1875 2.06161C99.0947 1.82204 98.9316 1.61614 98.7197 1.47094C98.5078 1.32575 98.2569 1.24805 98 1.24805C97.7431 1.24805 97.4922 1.32575 97.2802 1.47094C97.0683 1.61614 96.9052 1.82204 96.8125 2.06161L95.0937 6.39754C95.091 6.40385 95.0867 6.40934 95.0812 6.41345C95.0757 6.41756 95.0693 6.42016 95.0625 6.42098L90.4531 6.71786C90.1954 6.73407 89.9485 6.82778 89.745 6.98671C89.5415 7.14564 89.3907 7.36237 89.3125 7.60848C89.2312 7.8578 89.2264 8.12575 89.2988 8.37779C89.3712 8.62983 89.5175 8.8544 89.7187 9.02254L93.25 11.96C93.258 11.9681 93.2637 11.9781 93.2665 11.9891C93.2692 12.0001 93.2689 12.0117 93.2656 12.0225L92.2109 16.171C92.139 16.4517 92.1527 16.7474 92.2501 17.0203C92.3476 17.2931 92.5244 17.5306 92.7578 17.7022C92.9851 17.8654 93.256 17.9571 93.5358 17.9654C93.8155 17.9738 94.0914 17.8984 94.3281 17.7491L97.9922 15.4288H98.0078L101.953 17.921C102.155 18.0525 102.391 18.123 102.633 18.1241C102.899 18.1205 103.158 18.0361 103.375 17.8819C103.587 17.7281 103.748 17.5137 103.836 17.2668C103.923 17.02 103.934 16.7523 103.867 16.4991L102.734 12.0225C102.731 12.0117 102.731 12.0001 102.733 11.9891C102.736 11.9781 102.742 11.9681 102.75 11.96L106.281 9.02254C106.482 8.8544 106.629 8.62983 106.701 8.37779C106.774 8.12575 106.769 7.8578 106.687 7.60848ZM105.484 8.06161L101.945 10.9991C101.757 11.1586 101.618 11.3677 101.544 11.6026C101.469 11.8374 101.462 12.0886 101.523 12.3272L102.656 16.8038C102.664 16.835 102.664 16.8429 102.656 16.8507C102.651 16.8607 102.643 16.8689 102.633 16.8741H102.617L98.6797 14.3741C98.4766 14.2449 98.2406 14.1771 98 14.1788V2.49911C98.0078 2.49911 98.0156 2.49911 98.0234 2.52254L99.75 6.85848C99.838 7.08421 99.9882 7.28035 100.183 7.42416C100.378 7.56797 100.61 7.65355 100.852 7.67098L105.469 7.96786C105.477 7.96786 105.484 7.96786 105.492 7.99911C105.5 8.03036 105.492 8.05379 105.484 8.06161Z" fill="#FFC761"/>
</svg>
