<svg width="102" height="34" viewBox="0 0 102 34" fill="none" xmlns="http://www.w3.org/2000/svg">
<rect width="102" height="34" rx="17" fill="#3456D0"/>
<path d="M12.37 17.51C12.37 16.83 12.5267 16.22 12.84 15.68C13.16 15.14 13.59 14.72 14.13 14.42C14.6767 14.1133 15.2733 13.96 15.92 13.96C16.66 13.96 17.3167 14.1433 17.89 14.51C18.47 14.87 18.89 15.3833 19.15 16.05H17.78C17.6 15.6833 17.35 15.41 17.03 15.23C16.71 15.05 16.34 14.96 15.92 14.96C15.46 14.96 15.05 15.0633 14.69 15.27C14.33 15.4767 14.0467 15.7733 13.84 16.16C13.64 16.5467 13.54 16.9967 13.54 17.51C13.54 18.0233 13.64 18.4733 13.84 18.86C14.0467 19.2467 14.33 19.5467 14.69 19.76C15.05 19.9667 15.46 20.07 15.92 20.07C16.34 20.07 16.71 19.98 17.03 19.8C17.35 19.62 17.6 19.3467 17.78 18.98H19.15C18.89 19.6467 18.47 20.16 17.89 20.52C17.3167 20.88 16.66 21.06 15.92 21.06C15.2667 21.06 14.67 20.91 14.13 20.61C13.59 20.3033 13.16 19.88 12.84 19.34C12.5267 18.8 12.37 18.19 12.37 17.51ZM24.0944 21L22.4944 18.22H21.6244V21H20.4844V14.05H22.8844C23.4177 14.05 23.8677 14.1433 24.2344 14.33C24.6077 14.5167 24.8844 14.7667 25.0644 15.08C25.251 15.3933 25.3444 15.7433 25.3444 16.13C25.3444 16.5833 25.211 16.9967 24.9444 17.37C24.6844 17.7367 24.281 17.9867 23.7344 18.12L25.4544 21H24.0944ZM21.6244 17.31H22.8844C23.311 17.31 23.631 17.2033 23.8444 16.99C24.0644 16.7767 24.1744 16.49 24.1744 16.13C24.1744 15.77 24.0677 15.49 23.8544 15.29C23.641 15.0833 23.3177 14.98 22.8844 14.98H21.6244V17.31ZM27.9427 14.97V17.01H30.3427V17.94H27.9427V20.07H30.6427V21H26.8027V14.04H30.6427V14.97H27.9427ZM36.2369 19.58H33.3269L32.8269 21H31.6369L34.1269 14.04H35.4469L37.9369 21H36.7369L36.2369 19.58ZM35.9169 18.65L34.7869 15.42L33.6469 18.65H35.9169ZM43.5095 14.05V14.98H41.6595V21H40.5195V14.98H38.6595V14.05H43.5095ZM45.8041 14.97V17.01H48.2041V17.94H45.8041V20.07H48.5041V21H44.6641V14.04H48.5041V14.97H45.8041ZM53.6359 14.05V18.48C53.6359 19.0067 53.7725 19.4033 54.0459 19.67C54.3259 19.9367 54.7125 20.07 55.2059 20.07C55.7059 20.07 56.0925 19.9367 56.3659 19.67C56.6459 19.4033 56.7859 19.0067 56.7859 18.48V14.05H57.9259V18.46C57.9259 19.0267 57.8025 19.5067 57.5559 19.9C57.3092 20.2933 56.9792 20.5867 56.5659 20.78C56.1525 20.9733 55.6959 21.07 55.1959 21.07C54.6959 21.07 54.2392 20.9733 53.8259 20.78C53.4192 20.5867 53.0959 20.2933 52.8559 19.9C52.6159 19.5067 52.4959 19.0267 52.4959 18.46V14.05H53.6359ZM64.2702 16.12C64.2702 16.4733 64.1868 16.8067 64.0202 17.12C63.8535 17.4333 63.5868 17.69 63.2202 17.89C62.8535 18.0833 62.3835 18.18 61.8102 18.18H60.5502V21H59.4102V14.05H61.8102C62.3435 14.05 62.7935 14.1433 63.1602 14.33C63.5335 14.51 63.8102 14.7567 63.9902 15.07C64.1768 15.3833 64.2702 15.7333 64.2702 16.12ZM61.8102 17.25C62.2435 17.25 62.5668 17.1533 62.7802 16.96C62.9935 16.76 63.1002 16.48 63.1002 16.12C63.1002 15.36 62.6702 14.98 61.8102 14.98H60.5502V17.25H61.8102ZM67.6274 14.05C68.3674 14.05 69.0141 14.1933 69.5674 14.48C70.1274 14.76 70.5574 15.1667 70.8574 15.7C71.1641 16.2267 71.3174 16.8433 71.3174 17.55C71.3174 18.2567 71.1641 18.87 70.8574 19.39C70.5574 19.91 70.1274 20.31 69.5674 20.59C69.0141 20.8633 68.3674 21 67.6274 21H65.3574V14.05H67.6274ZM67.6274 20.07C68.4408 20.07 69.0641 19.85 69.4974 19.41C69.9308 18.97 70.1474 18.35 70.1474 17.55C70.1474 16.7433 69.9308 16.1133 69.4974 15.66C69.0641 15.2067 68.4408 14.98 67.6274 14.98H66.4974V20.07H67.6274ZM76.6373 19.58H73.7273L73.2273 21H72.0373L74.5273 14.04H75.8473L78.3373 21H77.1373L76.6373 19.58ZM76.3173 18.65L75.1873 15.42L74.0473 18.65H76.3173ZM83.9099 14.05V14.98H82.0599V21H80.9199V14.98H79.0599V14.05H83.9099ZM86.2045 14.97V17.01H88.6045V17.94H86.2045V20.07H88.9045V21H85.0645V14.04H88.9045V14.97H86.2045Z" fill="white"/>
</svg>
