<svg width="25" height="25" viewBox="0 0 25 25" fill="none" xmlns="http://www.w3.org/2000/svg">
<path d="M12.5206 3.18274C9.1278 3.18274 6.37055 5.93999 6.37055 9.33274V12.295C6.37055 12.9202 6.10405 13.8735 5.7863 14.4065L4.60755 16.3642C3.8798 17.5737 4.38205 18.9165 5.71455 19.3675C10.1323 20.8435 14.8986 20.8435 19.3163 19.3675C20.5566 18.9575 21.0998 17.4917 20.4233 16.3642L19.2446 14.4065C18.9371 13.8735 18.6706 12.9202 18.6706 12.295V9.33274C18.6706 5.95024 15.9031 3.18274 12.5206 3.18274Z" stroke="#3456D0" stroke-width="1.5" stroke-miterlimit="10" stroke-linecap="round"/>
<path d="M14.4165 3.48004C14.0988 3.38779 13.7708 3.31604 13.4325 3.27504C12.4485 3.15204 11.5055 3.22379 10.624 3.48004C10.9213 2.72154 11.6593 2.18854 12.5203 2.18854C13.3813 2.18854 14.1193 2.72154 14.4165 3.48004Z" stroke="#3456D0" stroke-width="1.5" stroke-miterlimit="10" stroke-linecap="round" stroke-linejoin="round"/>
<path d="M15.5953 19.7365C15.5953 21.4278 14.2116 22.8115 12.5203 22.8115C11.6798 22.8115 10.9008 22.463 10.3473 21.9095C9.79381 21.356 9.44531 20.577 9.44531 19.7365" stroke="#3456D0" stroke-width="1.5" stroke-miterlimit="10"/>
</svg>
