<svg width="200" height="200" viewBox="0 0 200 200" fill="none" xmlns="http://www.w3.org/2000/svg">
<rect width="200" height="200" rx="7" fill="#F7F8FD"/>
<path d="M19.5171 13.2812H13.5554V19.2429H19.5171V13.2812Z" fill="black"/>
<path d="M19.5171 19.243H13.5554V25.2046H19.5171V19.243Z" fill="black"/>
<path d="M19.5171 25.2046H13.5554V31.1663H19.5171V25.2046Z" fill="black"/>
<path d="M19.5171 31.1663H13.5554V37.128H19.5171V31.1663Z" fill="black"/>
<path d="M19.5171 37.128H13.5554V43.0897H19.5171V37.128Z" fill="black"/>
<path d="M19.5171 43.0897H13.5554V49.0514H19.5171V43.0897Z" fill="black"/>
<path d="M19.5171 49.0514H13.5554V55.0131H19.5171V49.0514Z" fill="black"/>
<path d="M19.5171 66.9364H13.5554V72.8981H19.5171V66.9364Z" fill="black"/>
<path d="M19.5171 96.7449H13.5554V102.707H19.5171V96.7449Z" fill="black"/>
<path d="M19.5171 102.707H13.5554V108.668H19.5171V102.707Z" fill="black"/>
<path d="M19.5171 108.668H13.5554V114.63H19.5171V108.668Z" fill="black"/>
<path d="M19.5171 120.592H13.5554V126.553H19.5171V120.592Z" fill="black"/>
<path d="M19.5171 126.553H13.5554V132.515H19.5171V126.553Z" fill="black"/>
<path d="M19.5171 144.438H13.5554V150.4H19.5171V144.438Z" fill="black"/>
<path d="M19.5171 150.4H13.5554V156.362H19.5171V150.4Z" fill="black"/>
<path d="M19.5171 156.362H13.5554V162.324H19.5171V156.362Z" fill="black"/>
<path d="M19.5171 162.323H13.5554V168.285H19.5171V162.323Z" fill="black"/>
<path d="M19.5171 168.285H13.5554V174.247H19.5171V168.285Z" fill="black"/>
<path d="M19.5171 174.247H13.5554V180.209H19.5171V174.247Z" fill="black"/>
<path d="M19.5171 180.209H13.5554V186.17H19.5171V180.209Z" fill="black"/>
<path d="M25.4788 13.2812H19.5171V19.2429H25.4788V13.2812Z" fill="black"/>
<path d="M25.4788 49.0514H19.5171V55.0131H25.4788V49.0514Z" fill="black"/>
<path d="M25.4788 90.7832H19.5171V96.7449H25.4788V90.7832Z" fill="black"/>
<path d="M25.4788 102.707H19.5171V108.668H25.4788V102.707Z" fill="black"/>
<path d="M25.4788 108.668H19.5171V114.63H25.4788V108.668Z" fill="black"/>
<path d="M25.4788 120.592H19.5171V126.553H25.4788V120.592Z" fill="black"/>
<path d="M25.4788 126.553H19.5171V132.515H25.4788V126.553Z" fill="black"/>
<path d="M25.4788 144.438H19.5171V150.4H25.4788V144.438Z" fill="black"/>
<path d="M25.4788 180.209H19.5171V186.17H25.4788V180.209Z" fill="black"/>
<path d="M31.4404 13.2812H25.4788V19.2429H31.4404V13.2812Z" fill="black"/>
<path d="M31.4404 25.2046H25.4788V31.1663H31.4404V25.2046Z" fill="black"/>
<path d="M31.4404 31.1663H25.4788V37.128H31.4404V31.1663Z" fill="black"/>
<path d="M31.4404 37.128H25.4788V43.0897H31.4404V37.128Z" fill="black"/>
<path d="M31.4404 49.0514H25.4788V55.0131H31.4404V49.0514Z" fill="black"/>
<path d="M31.4404 66.9364H25.4788V72.8981H31.4404V66.9364Z" fill="black"/>
<path d="M31.4404 84.8215H25.4788V90.7832H31.4404V84.8215Z" fill="black"/>
<path d="M31.4404 114.63H25.4788V120.592H31.4404V114.63Z" fill="black"/>
<path d="M31.4404 126.553H25.4788V132.515H31.4404V126.553Z" fill="black"/>
<path d="M31.4404 132.515H25.4788V138.477H31.4404V132.515Z" fill="black"/>
<path d="M31.4404 144.438H25.4788V150.4H31.4404V144.438Z" fill="black"/>
<path d="M31.4404 156.362H25.4788V162.324H31.4404V156.362Z" fill="black"/>
<path d="M31.4404 162.323H25.4788V168.285H31.4404V162.323Z" fill="black"/>
<path d="M31.4404 168.285H25.4788V174.247H31.4404V168.285Z" fill="black"/>
<path d="M31.4404 180.209H25.4788V186.17H31.4404V180.209Z" fill="black"/>
<path d="M37.4021 13.2812H31.4404V19.2429H37.4021V13.2812Z" fill="black"/>
<path d="M37.4021 25.2046H31.4404V31.1663H37.4021V25.2046Z" fill="black"/>
<path d="M37.4021 31.1663H31.4404V37.128H37.4021V31.1663Z" fill="black"/>
<path d="M37.4021 37.128H31.4404V43.0897H37.4021V37.128Z" fill="black"/>
<path d="M37.4021 49.0514H31.4404V55.0131H37.4021V49.0514Z" fill="black"/>
<path d="M37.4021 72.8981H31.4404V78.8598H37.4021V72.8981Z" fill="black"/>
<path d="M37.4021 78.8598H31.4404V84.8215H37.4021V78.8598Z" fill="black"/>
<path d="M37.4021 90.7832H31.4404V96.7449H37.4021V90.7832Z" fill="black"/>
<path d="M37.4021 96.7449H31.4404V102.707H37.4021V96.7449Z" fill="black"/>
<path d="M37.4021 114.63H31.4404V120.592H37.4021V114.63Z" fill="black"/>
<path d="M37.4021 126.553H31.4404V132.515H37.4021V126.553Z" fill="black"/>
<path d="M37.4021 144.438H31.4404V150.4H37.4021V144.438Z" fill="black"/>
<path d="M37.4021 156.362H31.4404V162.324H37.4021V156.362Z" fill="black"/>
<path d="M37.4021 162.323H31.4404V168.285H37.4021V162.323Z" fill="black"/>
<path d="M37.4021 168.285H31.4404V174.247H37.4021V168.285Z" fill="black"/>
<path d="M37.4021 180.209H31.4404V186.17H37.4021V180.209Z" fill="black"/>
<path d="M43.3638 13.2812H37.4021V19.2429H43.3638V13.2812Z" fill="black"/>
<path d="M43.3638 25.2046H37.4021V31.1663H43.3638V25.2046Z" fill="black"/>
<path d="M43.3638 31.1663H37.4021V37.128H43.3638V31.1663Z" fill="black"/>
<path d="M43.3638 37.128H37.4021V43.0897H43.3638V37.128Z" fill="black"/>
<path d="M43.3638 49.0514H37.4021V55.0131H43.3638V49.0514Z" fill="black"/>
<path d="M43.3638 60.9747H37.4021V66.9364H43.3638V60.9747Z" fill="black"/>
<path d="M43.3638 66.9364H37.4021V72.8981H43.3638V66.9364Z" fill="black"/>
<path d="M43.3638 72.8981H37.4021V78.8598H43.3638V72.8981Z" fill="black"/>
<path d="M43.3638 84.8215H37.4021V90.7832H43.3638V84.8215Z" fill="black"/>
<path d="M43.3638 120.592H37.4021V126.553H43.3638V120.592Z" fill="black"/>
<path d="M43.3638 144.438H37.4021V150.4H43.3638V144.438Z" fill="black"/>
<path d="M43.3638 156.362H37.4021V162.324H43.3638V156.362Z" fill="black"/>
<path d="M43.3638 162.323H37.4021V168.285H43.3638V162.323Z" fill="black"/>
<path d="M43.3638 168.285H37.4021V174.247H43.3638V168.285Z" fill="black"/>
<path d="M43.3638 180.209H37.4021V186.17H43.3638V180.209Z" fill="black"/>
<path d="M49.3255 13.2812H43.3638V19.2429H49.3255V13.2812Z" fill="black"/>
<path d="M49.3255 49.0514H43.3638V55.0131H49.3255V49.0514Z" fill="black"/>
<path d="M49.3255 60.9747H43.3638V66.9364H49.3255V60.9747Z" fill="black"/>
<path d="M49.3255 72.8981H43.3638V78.8598H49.3255V72.8981Z" fill="black"/>
<path d="M49.3255 84.8215H43.3638V90.7832H49.3255V84.8215Z" fill="black"/>
<path d="M49.3255 90.7832H43.3638V96.7449H49.3255V90.7832Z" fill="black"/>
<path d="M49.3255 96.7449H43.3638V102.707H49.3255V96.7449Z" fill="black"/>
<path d="M49.3255 102.707H43.3638V108.668H49.3255V102.707Z" fill="black"/>
<path d="M49.3255 144.438H43.3638V150.4H49.3255V144.438Z" fill="black"/>
<path d="M49.3255 180.209H43.3638V186.17H49.3255V180.209Z" fill="black"/>
<path d="M55.2874 13.2812H49.3257V19.2429H55.2874V13.2812Z" fill="black"/>
<path d="M55.2874 19.243H49.3257V25.2046H55.2874V19.243Z" fill="black"/>
<path d="M55.2874 25.2046H49.3257V31.1663H55.2874V25.2046Z" fill="black"/>
<path d="M55.2874 31.1663H49.3257V37.128H55.2874V31.1663Z" fill="black"/>
<path d="M55.2874 37.128H49.3257V43.0897H55.2874V37.128Z" fill="black"/>
<path d="M55.2874 43.0897H49.3257V49.0514H55.2874V43.0897Z" fill="black"/>
<path d="M55.2874 49.0514H49.3257V55.0131H55.2874V49.0514Z" fill="black"/>
<path d="M55.2874 60.9747H49.3257V66.9364H55.2874V60.9747Z" fill="black"/>
<path d="M55.2874 72.8981H49.3257V78.8598H55.2874V72.8981Z" fill="black"/>
<path d="M55.2874 84.8215H49.3257V90.7832H55.2874V84.8215Z" fill="black"/>
<path d="M55.2874 96.7449H49.3257V102.707H55.2874V96.7449Z" fill="black"/>
<path d="M55.2874 108.668H49.3257V114.63H55.2874V108.668Z" fill="black"/>
<path d="M55.2874 120.592H49.3257V126.553H55.2874V120.592Z" fill="black"/>
<path d="M55.2874 132.515H49.3257V138.477H55.2874V132.515Z" fill="black"/>
<path d="M55.2874 144.438H49.3257V150.4H55.2874V144.438Z" fill="black"/>
<path d="M55.2874 150.4H49.3257V156.362H55.2874V150.4Z" fill="black"/>
<path d="M55.2874 156.362H49.3257V162.324H55.2874V156.362Z" fill="black"/>
<path d="M55.2874 162.323H49.3257V168.285H55.2874V162.323Z" fill="black"/>
<path d="M55.2874 168.285H49.3257V174.247H55.2874V168.285Z" fill="black"/>
<path d="M55.2874 174.247H49.3257V180.209H55.2874V174.247Z" fill="black"/>
<path d="M55.2874 180.209H49.3257V186.17H55.2874V180.209Z" fill="black"/>
<path d="M61.249 60.9747H55.2874V66.9364H61.249V60.9747Z" fill="black"/>
<path d="M61.249 66.9364H55.2874V72.8981H61.249V66.9364Z" fill="black"/>
<path d="M61.249 78.8598H55.2874V84.8215H61.249V78.8598Z" fill="black"/>
<path d="M61.249 120.592H55.2874V126.553H61.249V120.592Z" fill="black"/>
<path d="M67.2107 19.243H61.249V25.2046H67.2107V19.243Z" fill="black"/>
<path d="M67.2107 43.0897H61.249V49.0514H67.2107V43.0897Z" fill="black"/>
<path d="M67.2107 49.0514H61.249V55.0131H67.2107V49.0514Z" fill="black"/>
<path d="M67.2107 55.0131H61.249V60.9748H67.2107V55.0131Z" fill="black"/>
<path d="M67.2107 72.8981H61.249V78.8598H67.2107V72.8981Z" fill="black"/>
<path d="M67.2107 84.8215H61.249V90.7832H67.2107V84.8215Z" fill="black"/>
<path d="M67.2107 96.7449H61.249V102.707H67.2107V96.7449Z" fill="black"/>
<path d="M67.2107 114.63H61.249V120.592H67.2107V114.63Z" fill="black"/>
<path d="M67.2107 120.592H61.249V126.553H67.2107V120.592Z" fill="black"/>
<path d="M67.2107 126.553H61.249V132.515H67.2107V126.553Z" fill="black"/>
<path d="M67.2107 132.515H61.249V138.477H67.2107V132.515Z" fill="black"/>
<path d="M67.2107 138.477H61.249V144.438H67.2107V138.477Z" fill="black"/>
<path d="M67.2107 144.438H61.249V150.4H67.2107V144.438Z" fill="black"/>
<path d="M67.2107 150.4H61.249V156.362H67.2107V150.4Z" fill="black"/>
<path d="M67.2107 156.362H61.249V162.324H67.2107V156.362Z" fill="black"/>
<path d="M73.1724 25.2046H67.2107V31.1663H73.1724V25.2046Z" fill="black"/>
<path d="M73.1724 31.1663H67.2107V37.128H73.1724V31.1663Z" fill="black"/>
<path d="M73.1724 43.0897H67.2107V49.0514H73.1724V43.0897Z" fill="black"/>
<path d="M73.1724 60.9747H67.2107V66.9364H73.1724V60.9747Z" fill="black"/>
<path d="M73.1724 102.707H67.2107V108.668H73.1724V102.707Z" fill="black"/>
<path d="M73.1724 114.63H67.2107V120.592H73.1724V114.63Z" fill="black"/>
<path d="M73.1724 120.592H67.2107V126.553H73.1724V120.592Z" fill="black"/>
<path d="M73.1724 126.553H67.2107V132.515H73.1724V126.553Z" fill="black"/>
<path d="M73.1724 132.515H67.2107V138.477H73.1724V132.515Z" fill="black"/>
<path d="M73.1724 144.438H67.2107V150.4H73.1724V144.438Z" fill="black"/>
<path d="M73.1724 150.4H67.2107V156.362H73.1724V150.4Z" fill="black"/>
<path d="M73.1724 156.362H67.2107V162.324H73.1724V156.362Z" fill="black"/>
<path d="M73.1724 168.285H67.2107V174.247H73.1724V168.285Z" fill="black"/>
<path d="M73.1724 180.209H67.2107V186.17H73.1724V180.209Z" fill="black"/>
<path d="M79.1341 13.2812H73.1724V19.2429H79.1341V13.2812Z" fill="black"/>
<path d="M79.1341 25.2046H73.1724V31.1663H79.1341V25.2046Z" fill="black"/>
<path d="M79.1341 31.1663H73.1724V37.128H79.1341V31.1663Z" fill="black"/>
<path d="M79.1341 49.0514H73.1724V55.0131H79.1341V49.0514Z" fill="black"/>
<path d="M79.1341 66.9364H73.1724V72.8981H79.1341V66.9364Z" fill="black"/>
<path d="M79.1341 84.8215H73.1724V90.7832H79.1341V84.8215Z" fill="black"/>
<path d="M79.1341 120.592H73.1724V126.553H79.1341V120.592Z" fill="black"/>
<path d="M79.1341 126.553H73.1724V132.515H79.1341V126.553Z" fill="black"/>
<path d="M79.1341 138.477H73.1724V144.438H79.1341V138.477Z" fill="black"/>
<path d="M79.1341 144.438H73.1724V150.4H79.1341V144.438Z" fill="black"/>
<path d="M79.1341 150.4H73.1724V156.362H79.1341V150.4Z" fill="black"/>
<path d="M79.1341 156.362H73.1724V162.324H79.1341V156.362Z" fill="black"/>
<path d="M79.1341 162.323H73.1724V168.285H79.1341V162.323Z" fill="black"/>
<path d="M79.1341 168.285H73.1724V174.247H79.1341V168.285Z" fill="black"/>
<path d="M85.0957 13.2812H79.134V19.2429H85.0957V13.2812Z" fill="black"/>
<path d="M85.0957 31.1663H79.134V37.128H85.0957V31.1663Z" fill="black"/>
<path d="M85.0957 43.0897H79.134V49.0514H85.0957V43.0897Z" fill="black"/>
<path d="M85.0957 60.9747H79.134V66.9364H85.0957V60.9747Z" fill="black"/>
<path d="M85.0957 66.9364H79.134V72.8981H85.0957V66.9364Z" fill="black"/>
<path d="M85.0957 72.8981H79.134V78.8598H85.0957V72.8981Z" fill="black"/>
<path d="M85.0957 96.7449H79.134V102.707H85.0957V96.7449Z" fill="black"/>
<path d="M85.0957 102.707H79.134V108.668H85.0957V102.707Z" fill="black"/>
<path d="M85.0957 114.63H79.134V120.592H85.0957V114.63Z" fill="black"/>
<path d="M85.0957 126.553H79.134V132.515H85.0957V126.553Z" fill="black"/>
<path d="M85.0957 138.477H79.134V144.438H85.0957V138.477Z" fill="black"/>
<path d="M85.0957 144.438H79.134V150.4H85.0957V144.438Z" fill="black"/>
<path d="M85.0957 162.323H79.134V168.285H85.0957V162.323Z" fill="black"/>
<path d="M91.0574 19.243H85.0957V25.2046H91.0574V19.243Z" fill="black"/>
<path d="M91.0574 25.2046H85.0957V31.1663H91.0574V25.2046Z" fill="black"/>
<path d="M91.0574 31.1663H85.0957V37.128H91.0574V31.1663Z" fill="black"/>
<path d="M91.0574 37.128H85.0957V43.0897H91.0574V37.128Z" fill="black"/>
<path d="M91.0574 49.0514H85.0957V55.0131H91.0574V49.0514Z" fill="black"/>
<path d="M91.0574 78.8598H85.0957V84.8215H91.0574V78.8598Z" fill="black"/>
<path d="M91.0574 84.8215H85.0957V90.7832H91.0574V84.8215Z" fill="black"/>
<path d="M91.0574 96.7449H85.0957V102.707H91.0574V96.7449Z" fill="black"/>
<path d="M91.0574 114.63H85.0957V120.592H91.0574V114.63Z" fill="black"/>
<path d="M91.0574 120.592H85.0957V126.553H91.0574V120.592Z" fill="black"/>
<path d="M91.0574 126.553H85.0957V132.515H91.0574V126.553Z" fill="black"/>
<path d="M91.0574 144.438H85.0957V150.4H91.0574V144.438Z" fill="black"/>
<path d="M91.0574 162.323H85.0957V168.285H91.0574V162.323Z" fill="black"/>
<path d="M91.0574 168.285H85.0957V174.247H91.0574V168.285Z" fill="black"/>
<path d="M91.0574 174.247H85.0957V180.209H91.0574V174.247Z" fill="black"/>
<path d="M91.0574 180.209H85.0957V186.17H91.0574V180.209Z" fill="black"/>
<path d="M97.0191 13.2812H91.0574V19.2429H97.0191V13.2812Z" fill="black"/>
<path d="M97.0191 25.2046H91.0574V31.1663H97.0191V25.2046Z" fill="black"/>
<path d="M97.0191 31.1663H91.0574V37.128H97.0191V31.1663Z" fill="black"/>
<path d="M97.0191 43.0897H91.0574V49.0514H97.0191V43.0897Z" fill="black"/>
<path d="M97.0191 55.0131H91.0574V60.9748H97.0191V55.0131Z" fill="black"/>
<path d="M97.0191 84.8215H91.0574V90.7832H97.0191V84.8215Z" fill="black"/>
<path d="M97.0191 90.7832H91.0574V96.7449H97.0191V90.7832Z" fill="black"/>
<path d="M97.0191 96.7449H91.0574V102.707H97.0191V96.7449Z" fill="black"/>
<path d="M97.0191 102.707H91.0574V108.668H97.0191V102.707Z" fill="black"/>
<path d="M97.0191 108.668H91.0574V114.63H97.0191V108.668Z" fill="black"/>
<path d="M97.0191 114.63H91.0574V120.592H97.0191V114.63Z" fill="black"/>
<path d="M97.0191 120.592H91.0574V126.553H97.0191V120.592Z" fill="black"/>
<path d="M97.0191 126.553H91.0574V132.515H97.0191V126.553Z" fill="black"/>
<path d="M97.0191 132.515H91.0574V138.477H97.0191V132.515Z" fill="black"/>
<path d="M97.0191 150.4H91.0574V156.362H97.0191V150.4Z" fill="black"/>
<path d="M97.0191 162.323H91.0574V168.285H97.0191V162.323Z" fill="black"/>
<path d="M97.0191 174.247H91.0574V180.209H97.0191V174.247Z" fill="black"/>
<path d="M97.0191 180.209H91.0574V186.17H97.0191V180.209Z" fill="black"/>
<path d="M102.981 13.2812H97.019V19.2429H102.981V13.2812Z" fill="black"/>
<path d="M102.981 25.2046H97.019V31.1663H102.981V25.2046Z" fill="black"/>
<path d="M102.981 49.0514H97.019V55.0131H102.981V49.0514Z" fill="black"/>
<path d="M102.981 55.0131H97.019V60.9748H102.981V55.0131Z" fill="black"/>
<path d="M102.981 66.9364H97.019V72.8981H102.981V66.9364Z" fill="black"/>
<path d="M102.981 72.8981H97.019V78.8598H102.981V72.8981Z" fill="black"/>
<path d="M102.981 78.8598H97.019V84.8215H102.981V78.8598Z" fill="black"/>
<path d="M102.981 96.7449H97.019V102.707H102.981V96.7449Z" fill="black"/>
<path d="M102.981 102.707H97.019V108.668H102.981V102.707Z" fill="black"/>
<path d="M102.981 108.668H97.019V114.63H102.981V108.668Z" fill="black"/>
<path d="M102.981 114.63H97.019V120.592H102.981V114.63Z" fill="black"/>
<path d="M102.981 138.477H97.019V144.438H102.981V138.477Z" fill="black"/>
<path d="M102.981 144.438H97.019V150.4H102.981V144.438Z" fill="black"/>
<path d="M102.981 156.362H97.019V162.324H102.981V156.362Z" fill="black"/>
<path d="M102.981 162.323H97.019V168.285H102.981V162.323Z" fill="black"/>
<path d="M102.981 168.285H97.019V174.247H102.981V168.285Z" fill="black"/>
<path d="M102.981 180.209H97.019V186.17H102.981V180.209Z" fill="black"/>
<path d="M108.942 31.1663H102.981V37.128H108.942V31.1663Z" fill="black"/>
<path d="M108.942 66.9364H102.981V72.8981H108.942V66.9364Z" fill="black"/>
<path d="M108.942 72.8981H102.981V78.8598H108.942V72.8981Z" fill="black"/>
<path d="M108.942 84.8215H102.981V90.7832H108.942V84.8215Z" fill="black"/>
<path d="M108.942 108.668H102.981V114.63H108.942V108.668Z" fill="black"/>
<path d="M108.942 120.592H102.981V126.553H108.942V120.592Z" fill="black"/>
<path d="M108.942 132.515H102.981V138.477H108.942V132.515Z" fill="black"/>
<path d="M108.942 144.438H102.981V150.4H108.942V144.438Z" fill="black"/>
<path d="M108.942 156.362H102.981V162.324H108.942V156.362Z" fill="black"/>
<path d="M108.942 174.247H102.981V180.209H108.942V174.247Z" fill="black"/>
<path d="M108.942 180.209H102.981V186.17H108.942V180.209Z" fill="black"/>
<path d="M114.904 19.243H108.942V25.2046H114.904V19.243Z" fill="black"/>
<path d="M114.904 49.0514H108.942V55.0131H114.904V49.0514Z" fill="black"/>
<path d="M114.904 60.9747H108.942V66.9364H114.904V60.9747Z" fill="black"/>
<path d="M114.904 66.9364H108.942V72.8981H114.904V66.9364Z" fill="black"/>
<path d="M114.904 72.8981H108.942V78.8598H114.904V72.8981Z" fill="black"/>
<path d="M114.904 84.8215H108.942V90.7832H114.904V84.8215Z" fill="black"/>
<path d="M114.904 96.7449H108.942V102.707H114.904V96.7449Z" fill="black"/>
<path d="M114.904 102.707H108.942V108.668H114.904V102.707Z" fill="black"/>
<path d="M114.904 108.668H108.942V114.63H114.904V108.668Z" fill="black"/>
<path d="M114.904 114.63H108.942V120.592H114.904V114.63Z" fill="black"/>
<path d="M114.904 138.477H108.942V144.438H114.904V138.477Z" fill="black"/>
<path d="M114.904 150.4H108.942V156.362H114.904V150.4Z" fill="black"/>
<path d="M114.904 156.362H108.942V162.324H114.904V156.362Z" fill="black"/>
<path d="M114.904 162.323H108.942V168.285H114.904V162.323Z" fill="black"/>
<path d="M120.866 13.2812H114.904V19.2429H120.866V13.2812Z" fill="black"/>
<path d="M120.866 19.243H114.904V25.2046H120.866V19.243Z" fill="black"/>
<path d="M120.866 25.2046H114.904V31.1663H120.866V25.2046Z" fill="black"/>
<path d="M120.866 55.0131H114.904V60.9748H120.866V55.0131Z" fill="black"/>
<path d="M120.866 78.8598H114.904V84.8215H120.866V78.8598Z" fill="black"/>
<path d="M120.866 102.707H114.904V108.668H120.866V102.707Z" fill="black"/>
<path d="M120.866 108.668H114.904V114.63H120.866V108.668Z" fill="black"/>
<path d="M120.866 114.63H114.904V120.592H120.866V114.63Z" fill="black"/>
<path d="M120.866 138.477H114.904V144.438H120.866V138.477Z" fill="black"/>
<path d="M120.866 150.4H114.904V156.362H120.866V150.4Z" fill="black"/>
<path d="M120.866 156.362H114.904V162.324H120.866V156.362Z" fill="black"/>
<path d="M120.866 168.285H114.904V174.247H120.866V168.285Z" fill="black"/>
<path d="M120.866 174.247H114.904V180.209H120.866V174.247Z" fill="black"/>
<path d="M126.827 13.2812H120.866V19.2429H126.827V13.2812Z" fill="black"/>
<path d="M126.827 31.1663H120.866V37.128H126.827V31.1663Z" fill="black"/>
<path d="M126.827 37.128H120.866V43.0897H126.827V37.128Z" fill="black"/>
<path d="M126.827 43.0897H120.866V49.0514H126.827V43.0897Z" fill="black"/>
<path d="M126.827 49.0514H120.866V55.0131H126.827V49.0514Z" fill="black"/>
<path d="M126.827 55.0131H120.866V60.9748H126.827V55.0131Z" fill="black"/>
<path d="M126.827 60.9747H120.866V66.9364H126.827V60.9747Z" fill="black"/>
<path d="M126.827 78.8598H120.866V84.8215H126.827V78.8598Z" fill="black"/>
<path d="M126.827 84.8215H120.866V90.7832H126.827V84.8215Z" fill="black"/>
<path d="M126.827 90.7832H120.866V96.7449H126.827V90.7832Z" fill="black"/>
<path d="M126.827 102.707H120.866V108.668H126.827V102.707Z" fill="black"/>
<path d="M126.827 108.668H120.866V114.63H126.827V108.668Z" fill="black"/>
<path d="M126.827 132.515H120.866V138.477H126.827V132.515Z" fill="black"/>
<path d="M126.827 138.477H120.866V144.438H126.827V138.477Z" fill="black"/>
<path d="M126.827 162.323H120.866V168.285H126.827V162.323Z" fill="black"/>
<path d="M126.827 168.285H120.866V174.247H126.827V168.285Z" fill="black"/>
<path d="M126.827 174.247H120.866V180.209H126.827V174.247Z" fill="black"/>
<path d="M132.789 13.2812H126.827V19.2429H132.789V13.2812Z" fill="black"/>
<path d="M132.789 25.2046H126.827V31.1663H132.789V25.2046Z" fill="black"/>
<path d="M132.789 31.1663H126.827V37.128H132.789V31.1663Z" fill="black"/>
<path d="M132.789 43.0897H126.827V49.0514H132.789V43.0897Z" fill="black"/>
<path d="M132.789 60.9747H126.827V66.9364H132.789V60.9747Z" fill="black"/>
<path d="M132.789 66.9364H126.827V72.8981H132.789V66.9364Z" fill="black"/>
<path d="M132.789 84.8215H126.827V90.7832H132.789V84.8215Z" fill="black"/>
<path d="M132.789 108.668H126.827V114.63H132.789V108.668Z" fill="black"/>
<path d="M132.789 114.63H126.827V120.592H132.789V114.63Z" fill="black"/>
<path d="M132.789 120.592H126.827V126.553H132.789V120.592Z" fill="black"/>
<path d="M132.789 126.553H126.827V132.515H132.789V126.553Z" fill="black"/>
<path d="M132.789 138.477H126.827V144.438H132.789V138.477Z" fill="black"/>
<path d="M132.789 144.438H126.827V150.4H132.789V144.438Z" fill="black"/>
<path d="M132.789 150.4H126.827V156.362H132.789V150.4Z" fill="black"/>
<path d="M132.789 156.362H126.827V162.324H132.789V156.362Z" fill="black"/>
<path d="M132.789 162.323H126.827V168.285H132.789V162.323Z" fill="black"/>
<path d="M132.789 168.285H126.827V174.247H132.789V168.285Z" fill="black"/>
<path d="M132.789 174.247H126.827V180.209H132.789V174.247Z" fill="black"/>
<path d="M132.789 180.209H126.827V186.17H132.789V180.209Z" fill="black"/>
<path d="M138.751 19.243H132.789V25.2046H138.751V19.243Z" fill="black"/>
<path d="M138.751 25.2046H132.789V31.1663H138.751V25.2046Z" fill="black"/>
<path d="M138.751 49.0514H132.789V55.0131H138.751V49.0514Z" fill="black"/>
<path d="M138.751 55.0131H132.789V60.9748H138.751V55.0131Z" fill="black"/>
<path d="M138.751 66.9364H132.789V72.8981H138.751V66.9364Z" fill="black"/>
<path d="M138.751 72.8981H132.789V78.8598H138.751V72.8981Z" fill="black"/>
<path d="M138.751 96.7449H132.789V102.707H138.751V96.7449Z" fill="black"/>
<path d="M138.751 108.668H132.789V114.63H138.751V108.668Z" fill="black"/>
<path d="M138.751 126.553H132.789V132.515H138.751V126.553Z" fill="black"/>
<path d="M138.751 132.515H132.789V138.477H138.751V132.515Z" fill="black"/>
<path d="M138.751 138.477H132.789V144.438H138.751V138.477Z" fill="black"/>
<path d="M138.751 144.438H132.789V150.4H138.751V144.438Z" fill="black"/>
<path d="M138.751 150.4H132.789V156.362H138.751V150.4Z" fill="black"/>
<path d="M138.751 156.362H132.789V162.324H138.751V156.362Z" fill="black"/>
<path d="M138.751 162.323H132.789V168.285H138.751V162.323Z" fill="black"/>
<path d="M138.751 168.285H132.789V174.247H138.751V168.285Z" fill="black"/>
<path d="M138.751 180.209H132.789V186.17H138.751V180.209Z" fill="black"/>
<path d="M144.713 66.9364H138.751V72.8981H144.713V66.9364Z" fill="black"/>
<path d="M144.713 78.8598H138.751V84.8215H144.713V78.8598Z" fill="black"/>
<path d="M144.713 102.707H138.751V108.668H144.713V102.707Z" fill="black"/>
<path d="M144.713 108.668H138.751V114.63H144.713V108.668Z" fill="black"/>
<path d="M144.713 132.515H138.751V138.477H144.713V132.515Z" fill="black"/>
<path d="M144.713 156.362H138.751V162.324H144.713V156.362Z" fill="black"/>
<path d="M144.713 162.323H138.751V168.285H144.713V162.323Z" fill="black"/>
<path d="M144.713 168.285H138.751V174.247H144.713V168.285Z" fill="black"/>
<path d="M144.713 174.247H138.751V180.209H144.713V174.247Z" fill="black"/>
<path d="M144.713 180.209H138.751V186.17H144.713V180.209Z" fill="black"/>
<path d="M150.674 13.2812H144.713V19.2429H150.674V13.2812Z" fill="black"/>
<path d="M150.674 19.243H144.713V25.2046H150.674V19.243Z" fill="black"/>
<path d="M150.674 25.2046H144.713V31.1663H150.674V25.2046Z" fill="black"/>
<path d="M150.674 31.1663H144.713V37.128H150.674V31.1663Z" fill="black"/>
<path d="M150.674 37.128H144.713V43.0897H150.674V37.128Z" fill="black"/>
<path d="M150.674 43.0897H144.713V49.0514H150.674V43.0897Z" fill="black"/>
<path d="M150.674 49.0514H144.713V55.0131H150.674V49.0514Z" fill="black"/>
<path d="M150.674 60.9747H144.713V66.9364H150.674V60.9747Z" fill="black"/>
<path d="M150.674 90.7832H144.713V96.7449H150.674V90.7832Z" fill="black"/>
<path d="M150.674 108.668H144.713V114.63H150.674V108.668Z" fill="black"/>
<path d="M150.674 126.553H144.713V132.515H150.674V126.553Z" fill="black"/>
<path d="M150.674 132.515H144.713V138.477H150.674V132.515Z" fill="black"/>
<path d="M150.674 144.438H144.713V150.4H150.674V144.438Z" fill="black"/>
<path d="M150.674 156.362H144.713V162.324H150.674V156.362Z" fill="black"/>
<path d="M150.674 174.247H144.713V180.209H150.674V174.247Z" fill="black"/>
<path d="M156.636 13.2812H150.674V19.2429H156.636V13.2812Z" fill="black"/>
<path d="M156.636 49.0514H150.674V55.0131H156.636V49.0514Z" fill="black"/>
<path d="M156.636 60.9747H150.674V66.9364H156.636V60.9747Z" fill="black"/>
<path d="M156.636 78.8598H150.674V84.8215H156.636V78.8598Z" fill="black"/>
<path d="M156.636 90.7832H150.674V96.7449H156.636V90.7832Z" fill="black"/>
<path d="M156.636 114.63H150.674V120.592H156.636V114.63Z" fill="black"/>
<path d="M156.636 120.592H150.674V126.553H156.636V120.592Z" fill="black"/>
<path d="M156.636 132.515H150.674V138.477H156.636V132.515Z" fill="black"/>
<path d="M156.636 156.362H150.674V162.324H156.636V156.362Z" fill="black"/>
<path d="M162.598 13.2812H156.636V19.2429H162.598V13.2812Z" fill="black"/>
<path d="M162.598 25.2046H156.636V31.1663H162.598V25.2046Z" fill="black"/>
<path d="M162.598 31.1663H156.636V37.128H162.598V31.1663Z" fill="black"/>
<path d="M162.598 37.128H156.636V43.0897H162.598V37.128Z" fill="black"/>
<path d="M162.598 49.0514H156.636V55.0131H162.598V49.0514Z" fill="black"/>
<path d="M162.598 66.9364H156.636V72.8981H162.598V66.9364Z" fill="black"/>
<path d="M162.598 90.7832H156.636V96.7449H162.598V90.7832Z" fill="black"/>
<path d="M162.598 96.7449H156.636V102.707H162.598V96.7449Z" fill="black"/>
<path d="M162.598 102.707H156.636V108.668H162.598V102.707Z" fill="black"/>
<path d="M162.598 108.668H156.636V114.63H162.598V108.668Z" fill="black"/>
<path d="M162.598 120.592H156.636V126.553H162.598V120.592Z" fill="black"/>
<path d="M162.598 126.553H156.636V132.515H162.598V126.553Z" fill="black"/>
<path d="M162.598 132.515H156.636V138.477H162.598V132.515Z" fill="black"/>
<path d="M162.598 138.477H156.636V144.438H162.598V138.477Z" fill="black"/>
<path d="M162.598 144.438H156.636V150.4H162.598V144.438Z" fill="black"/>
<path d="M162.598 150.4H156.636V156.362H162.598V150.4Z" fill="black"/>
<path d="M162.598 156.362H156.636V162.324H162.598V156.362Z" fill="black"/>
<path d="M168.559 13.2812H162.598V19.2429H168.559V13.2812Z" fill="black"/>
<path d="M168.559 25.2046H162.598V31.1663H168.559V25.2046Z" fill="black"/>
<path d="M168.559 31.1663H162.598V37.128H168.559V31.1663Z" fill="black"/>
<path d="M168.559 37.128H162.598V43.0897H168.559V37.128Z" fill="black"/>
<path d="M168.559 49.0514H162.598V55.0131H168.559V49.0514Z" fill="black"/>
<path d="M168.559 66.9364H162.598V72.8981H168.559V66.9364Z" fill="black"/>
<path d="M168.559 78.8598H162.598V84.8215H168.559V78.8598Z" fill="black"/>
<path d="M168.559 84.8215H162.598V90.7832H168.559V84.8215Z" fill="black"/>
<path d="M168.559 96.7449H162.598V102.707H168.559V96.7449Z" fill="black"/>
<path d="M168.559 102.707H162.598V108.668H168.559V102.707Z" fill="black"/>
<path d="M168.559 108.668H162.598V114.63H168.559V108.668Z" fill="black"/>
<path d="M168.559 114.63H162.598V120.592H168.559V114.63Z" fill="black"/>
<path d="M168.559 120.592H162.598V126.553H168.559V120.592Z" fill="black"/>
<path d="M168.559 126.553H162.598V132.515H168.559V126.553Z" fill="black"/>
<path d="M168.559 132.515H162.598V138.477H168.559V132.515Z" fill="black"/>
<path d="M168.559 144.438H162.598V150.4H168.559V144.438Z" fill="black"/>
<path d="M168.559 150.4H162.598V156.362H168.559V150.4Z" fill="black"/>
<path d="M168.559 156.362H162.598V162.324H168.559V156.362Z" fill="black"/>
<path d="M168.559 180.209H162.598V186.17H168.559V180.209Z" fill="black"/>
<path d="M174.521 13.2812H168.559V19.2429H174.521V13.2812Z" fill="black"/>
<path d="M174.521 25.2046H168.559V31.1663H174.521V25.2046Z" fill="black"/>
<path d="M174.521 31.1663H168.559V37.128H174.521V31.1663Z" fill="black"/>
<path d="M174.521 37.128H168.559V43.0897H174.521V37.128Z" fill="black"/>
<path d="M174.521 49.0514H168.559V55.0131H174.521V49.0514Z" fill="black"/>
<path d="M174.521 66.9364H168.559V72.8981H174.521V66.9364Z" fill="black"/>
<path d="M174.521 90.7832H168.559V96.7449H174.521V90.7832Z" fill="black"/>
<path d="M174.521 114.63H168.559V120.592H174.521V114.63Z" fill="black"/>
<path d="M174.521 138.477H168.559V144.438H174.521V138.477Z" fill="black"/>
<path d="M174.521 144.438H168.559V150.4H174.521V144.438Z" fill="black"/>
<path d="M174.521 162.323H168.559V168.285H174.521V162.323Z" fill="black"/>
<path d="M174.521 180.209H168.559V186.17H174.521V180.209Z" fill="black"/>
<path d="M180.483 13.2812H174.521V19.2429H180.483V13.2812Z" fill="black"/>
<path d="M180.483 49.0514H174.521V55.0131H180.483V49.0514Z" fill="black"/>
<path d="M180.483 60.9747H174.521V66.9364H180.483V60.9747Z" fill="black"/>
<path d="M180.483 78.8598H174.521V84.8215H180.483V78.8598Z" fill="black"/>
<path d="M180.483 84.8215H174.521V90.7832H180.483V84.8215Z" fill="black"/>
<path d="M180.483 90.7832H174.521V96.7449H180.483V90.7832Z" fill="black"/>
<path d="M180.483 102.707H174.521V108.668H180.483V102.707Z" fill="black"/>
<path d="M180.483 126.553H174.521V132.515H180.483V126.553Z" fill="black"/>
<path d="M180.483 162.323H174.521V168.285H180.483V162.323Z" fill="black"/>
<path d="M180.483 168.285H174.521V174.247H180.483V168.285Z" fill="black"/>
<path d="M180.483 174.247H174.521V180.209H180.483V174.247Z" fill="black"/>
<path d="M180.483 180.209H174.521V186.17H180.483V180.209Z" fill="black"/>
<path d="M186.444 13.2812H180.483V19.2429H186.444V13.2812Z" fill="black"/>
<path d="M186.444 19.243H180.483V25.2046H186.444V19.243Z" fill="black"/>
<path d="M186.444 25.2046H180.483V31.1663H186.444V25.2046Z" fill="black"/>
<path d="M186.444 31.1663H180.483V37.128H186.444V31.1663Z" fill="black"/>
<path d="M186.444 37.128H180.483V43.0897H186.444V37.128Z" fill="black"/>
<path d="M186.444 43.0897H180.483V49.0514H186.444V43.0897Z" fill="black"/>
<path d="M186.444 49.0514H180.483V55.0131H186.444V49.0514Z" fill="black"/>
<path d="M186.444 66.9364H180.483V72.8981H186.444V66.9364Z" fill="black"/>
<path d="M186.444 72.8981H180.483V78.8598H186.444V72.8981Z" fill="black"/>
<path d="M186.444 78.8598H180.483V84.8215H186.444V78.8598Z" fill="black"/>
<path d="M186.444 84.8215H180.483V90.7832H186.444V84.8215Z" fill="black"/>
<path d="M186.444 90.7832H180.483V96.7449H186.444V90.7832Z" fill="black"/>
<path d="M186.444 96.7449H180.483V102.707H186.444V96.7449Z" fill="black"/>
<path d="M186.444 102.707H180.483V108.668H186.444V102.707Z" fill="black"/>
<path d="M186.444 108.668H180.483V114.63H186.444V108.668Z" fill="black"/>
<path d="M186.444 114.63H180.483V120.592H186.444V114.63Z" fill="black"/>
<path d="M186.444 120.592H180.483V126.553H186.444V120.592Z" fill="black"/>
<path d="M186.444 126.553H180.483V132.515H186.444V126.553Z" fill="black"/>
<path d="M186.444 138.477H180.483V144.438H186.444V138.477Z" fill="black"/>
<path d="M186.444 144.438H180.483V150.4H186.444V144.438Z" fill="black"/>
<path d="M186.444 168.285H180.483V174.247H186.444V168.285Z" fill="black"/>
<path d="M186.444 174.247H180.483V180.209H186.444V174.247Z" fill="black"/>
</svg>
