<svg width="26" height="26" viewBox="0 0 26 26" fill="none" xmlns="http://www.w3.org/2000/svg">
<rect x="0.5" y="0.5" width="25" height="25" rx="12.5" fill="white"/>
<rect x="0.5" y="0.5" width="25" height="25" rx="12.5" stroke="#E7EAF2"/>
<path d="M18.7727 11.3334C18.3035 11.3334 17.8906 11.5309 17.5866 11.8386C16.4692 11.0536 14.9625 10.5485 13.2929 10.4946L14.1602 6.529L16.9217 7.15795C16.9217 7.84386 17.4727 8.4041 18.1487 8.4041C18.8377 8.4041 19.3917 7.829 19.3917 7.14248C19.3917 6.45595 18.8414 5.88086 18.1493 5.88086C17.6671 5.88086 17.2511 6.17615 17.0437 6.57976L13.9937 5.89386C13.8401 5.85238 13.6897 5.96381 13.6488 6.11981L12.6967 10.4915C11.0402 10.5615 9.54951 11.066 8.42841 11.8516C8.12446 11.5309 7.69546 11.3334 7.22622 11.3334C5.48546 11.3334 4.91532 13.7038 6.50937 14.5141C6.45303 14.7648 6.42765 15.0322 6.42765 15.2991C6.42765 17.9616 9.38361 20.119 13.0131 20.119C16.658 20.119 19.614 17.9616 19.614 15.2991C19.614 15.0322 19.5861 14.7524 19.5174 14.5011C21.0793 13.6877 20.5042 11.3347 18.7727 11.3334ZM9.0388 14.6825C9.0388 13.9836 9.58975 13.4209 10.2818 13.4209C10.9578 13.4209 11.5094 13.9799 11.5094 14.6825C11.5094 15.369 10.9585 15.9286 10.2818 15.9286C9.59284 15.9317 9.0388 15.369 9.0388 14.6825ZM15.7487 17.6527C14.609 18.8091 11.393 18.8091 10.2527 17.6527C10.1271 17.5412 10.1271 17.3444 10.2527 17.2175C10.3623 17.1061 10.5567 17.1061 10.6663 17.2175C11.5367 18.1231 14.4239 18.1386 15.332 17.2175C15.4416 17.1061 15.636 17.1061 15.7456 17.2175C15.8737 17.345 15.8737 17.5419 15.7487 17.6527ZM15.7233 15.9311C15.0473 15.9311 14.4963 15.3721 14.4963 14.6862C14.4963 13.9873 15.0473 13.4246 15.7233 13.4246C16.4123 13.4246 16.9663 13.9836 16.9663 14.6862C16.9632 15.369 16.4123 15.9311 15.7233 15.9311Z" fill="#343434"/>
</svg>
