<svg width="1202" height="1202" viewBox="0 0 1202 1202" fill="none" xmlns="http://www.w3.org/2000/svg">
<g filter="url(#filter0_f_1_2)">
<circle cx="601" cy="601" r="201" fill="#1633EC" fill-opacity="0.3"/>
</g>
<path opacity="0.03" d="M770.254 278.545C753.163 238.006 728.7 201.574 697.583 170.295L697.67 170.186L792.499 88.02L587.86 197.879C587.86 197.879 587.86 197.879 587.838 197.879L267.756 369.71L402.334 443.747L275.889 578.277L274.475 579.734C231.725 535.064 205.436 474.592 205.436 408.098C205.436 270.937 317.269 159.361 454.717 159.361C480.854 159.361 506.056 163.404 529.736 170.882L630.871 118.104C617.498 110.105 603.538 102.997 589.056 96.8453C547.067 79.0209 502.468 70 456.5 70C410.553 70 365.955 79.0426 323.944 96.8453C283.391 114.039 246.99 138.667 215.721 170.012C184.452 201.357 159.924 237.875 142.768 278.545C125.002 320.672 116 365.407 116 411.489C116 457.572 125.002 502.306 142.768 544.433C158.728 582.299 181.125 616.557 209.372 646.423L125.937 724.568L624.478 442.877L506.165 365.233L633.502 235.223L633.589 235.115C677.1 279.915 703.933 340.931 703.933 408.12C703.933 545.281 592.1 656.857 454.652 656.857C426.318 656.857 399.072 652.097 373.674 643.38L271.692 698.396C288.196 709.113 305.635 718.395 323.944 726.155C365.933 743.979 410.532 753 456.5 753C502.446 753 547.045 743.957 589.056 726.155C629.609 708.961 666.01 684.333 697.279 652.988C728.548 621.643 753.076 585.125 770.232 544.455C787.998 502.328 797 457.593 797 411.511C797.043 365.385 788.019 320.672 770.254 278.545Z" fill="#3456D0"/>
<defs>
<filter id="filter0_f_1_2" x="0" y="0" width="1202" height="1202" filterUnits="userSpaceOnUse" color-interpolation-filters="sRGB">
<feFlood flood-opacity="0" result="BackgroundImageFix"/>
<feBlend mode="normal" in="SourceGraphic" in2="BackgroundImageFix" result="shape"/>
<feGaussianBlur stdDeviation="200" result="effect1_foregroundBlur_1_2"/>
</filter>
</defs>
</svg>
