<svg width="138" height="19" viewBox="0 0 138 19" fill="none" xmlns="http://www.w3.org/2000/svg">
<mask id="mask0_832_13987" style="mask-type:alpha" maskUnits="userSpaceOnUse" x="0" y="0" width="138" height="19">
<path d="M24.3108 13.6475V4.77966H26.262V11.874H30.6835V13.6475H24.3108Z" fill="white"/>
<path d="M31.1899 13.6476V4.77966H37.8789V6.51548H33.1281V8.31443H37.309V10.0502H33.1281V11.9123H37.9421V13.6481H31.1899V13.6476Z" fill="white"/>
<path d="M42.9858 13.7993C40.2239 13.7993 38.3235 11.8611 38.3235 9.23854V9.21317C38.3235 6.69205 40.287 4.62701 42.9728 4.62701C44.5694 4.62701 45.5317 5.05772 46.4568 5.84303L45.2278 7.32514C44.544 6.75519 43.9357 6.42596 42.9096 6.42596C41.4907 6.42596 40.3632 7.68032 40.3632 9.1878V9.21317C40.3632 10.8345 41.4783 12.0258 43.0489 12.0258C43.7581 12.0258 44.3918 11.8482 44.8856 11.4936V10.2268H42.9226V8.54174H46.7736V12.3933C45.8615 13.1657 44.6077 13.7993 42.9858 13.7993Z" fill="white"/>
<path d="M47.7737 13.6475V4.77966H49.7249V13.6475H47.7737Z" fill="white"/>
<path d="M55.2879 13.7993C52.5515 13.7993 50.5879 11.7597 50.5879 9.23854V9.21317C50.5879 6.69205 52.5768 4.62701 55.3133 4.62701C58.0498 4.62701 60.0134 6.66668 60.0134 9.1878V9.21317C60.0134 11.7343 58.0244 13.7993 55.2879 13.7993ZM57.9737 9.21317C57.9737 7.69271 56.8586 6.42596 55.2879 6.42596C53.7173 6.42596 52.6276 7.66734 52.6276 9.1878V9.21317C52.6276 10.7336 53.7427 12.0004 55.3133 12.0004C56.8845 12.0004 57.9737 10.759 57.9737 9.23854V9.21317Z" fill="white"/>
<path d="M67.0057 13.6475L62.711 8.00998V13.6475H60.7852V4.77966H62.5841L66.7396 10.2396V4.77966H68.6654V13.6475H67.0057Z" fill="white"/>
<path d="M17.7523 5.66057C17.2886 4.5602 16.6248 3.57134 15.7805 2.72231L15.7828 2.71936L18.3559 0.48912L12.8033 3.47104C12.8033 3.47104 12.8033 3.47104 12.8027 3.47104L4.1177 8.13508L7.76929 10.1447L4.33836 13.7962L4.30001 13.8358C3.14005 12.6233 2.42672 10.9819 2.42672 9.17704C2.42672 5.45407 5.46116 2.42554 9.19063 2.42554C9.89982 2.42554 10.5836 2.53528 11.2262 2.73824L13.9703 1.3057C13.6075 1.08857 13.2287 0.895638 12.8357 0.728664C11.6964 0.244855 10.4863 0 9.23901 0C7.99231 0 6.7822 0.245445 5.64229 0.728664C4.54192 1.19536 3.55424 1.86385 2.7058 2.71464C1.85736 3.56544 1.19183 4.55666 0.726305 5.66057C0.244265 6.80402 0 8.01826 0 9.26908C0 10.5199 0.244265 11.7342 0.726305 12.8776C1.15937 13.9054 1.76709 14.8353 2.53351 15.6459L0.269636 17.767L13.7969 10.1211L10.5866 8.01354L14.0417 4.48468L14.0441 4.48173C15.2247 5.69774 15.9528 7.35391 15.9528 9.17763C15.9528 12.9006 12.9183 15.9291 9.18886 15.9291C8.42007 15.9291 7.68079 15.7999 6.99165 15.5633L4.22449 17.0566C4.67231 17.3475 5.1455 17.5995 5.64229 17.8101C6.78161 18.2939 7.99172 18.5388 9.23901 18.5388C10.4857 18.5388 11.6958 18.2933 12.8357 17.8101C13.9361 17.3434 14.9238 16.6749 15.7722 15.8241C16.6207 14.9733 17.2862 13.9821 17.7517 12.8782C18.2338 11.7347 18.478 10.5205 18.478 9.26967C18.4792 8.01767 18.2343 6.80402 17.7523 5.66057Z" fill="white"/>
<path d="M80.4785 4.8158H81.4538V13.6837H80.6555L74.9294 6.41178V13.6837H73.9541V4.8158H74.8916L80.4785 11.9231V4.8158Z" fill="white"/>
<path d="M90.1462 5.72796H84.7541V8.7559H89.5763V9.66806H84.7541V12.7721H90.2099V13.6843H83.7534V4.8158H90.1468V5.72796H90.1462Z" fill="white"/>
<path d="M94.3634 13.6837H93.3627V5.74034H90.3855V4.8158H97.5831V5.74034H94.3634V13.6837Z" fill="white"/>
<path d="M103.568 4.72681H104.415L106.915 12.1379L109.52 4.75218H110.601L107.345 13.6838H106.472L103.972 6.48799L101.458 13.6838H100.599L97.3423 4.75218H98.4621L101.067 12.1379L103.568 4.72681Z" fill="white"/>
<path d="M119.907 10.8391C119.683 11.3926 119.368 11.8799 118.963 12.3024C118.558 12.7248 118.071 13.0605 117.503 13.3095C116.934 13.5585 116.304 13.683 115.615 13.683C114.925 13.683 114.298 13.5603 113.734 13.3154C113.17 13.0706 112.685 12.739 112.28 12.3207C111.874 11.9023 111.562 11.4168 111.342 10.8639C111.123 10.3111 111.012 9.72579 111.012 9.10923C111.012 8.49267 111.125 7.90797 111.349 7.35454C111.573 6.80169 111.887 6.31376 112.292 5.89131C112.697 5.46886 113.184 5.13314 113.753 4.88416C114.322 4.63517 114.951 4.51068 115.641 4.51068C116.33 4.51068 116.957 4.6334 117.521 4.87826C118.086 5.12311 118.571 5.4547 118.976 5.87302C119.381 6.29134 119.693 6.77691 119.913 7.32976C120.133 7.88319 120.243 8.46789 120.243 9.08445C120.243 9.70101 120.131 10.2857 119.907 10.8391ZM118.918 7.67786C118.741 7.23004 118.493 6.84182 118.175 6.51259C117.855 6.18336 117.478 5.9214 117.044 5.72728C116.608 5.53317 116.132 5.43582 115.615 5.43582C115.098 5.43582 114.622 5.53081 114.187 5.72079C113.751 5.91078 113.379 6.17038 113.069 6.5002C112.758 6.82943 112.515 7.21588 112.338 7.65957C112.161 8.10326 112.073 8.57822 112.073 9.08504C112.073 9.59186 112.162 10.0692 112.338 10.5164C112.515 10.9642 112.762 11.3525 113.082 11.6817C113.4 12.0109 113.777 12.2729 114.213 12.467C114.648 12.6611 115.124 12.7585 115.641 12.7585C116.158 12.7585 116.634 12.6635 117.07 12.4735C117.504 12.2835 117.877 12.0239 118.188 11.6941C118.498 11.3648 118.741 10.9784 118.918 10.5347C119.094 10.0916 119.183 9.61605 119.183 9.10923C119.183 8.603 119.095 8.12568 118.918 7.67786Z" fill="white"/>
<path d="M138 13.6837H136.746L133.338 9.38898L131.45 11.3018V13.6837H130.449V4.8158H131.45V10.1112L136.543 4.8158H137.835L134.035 8.69218L138 13.6837Z" fill="white"/>
<path d="M127.837 13.6837L125.265 10.238H122.731V13.6837H121.731V4.8158H125.544C126.034 4.8158 126.475 4.87952 126.868 5.00578C127.261 5.13263 127.597 5.312 127.875 5.54446C128.154 5.77693 128.369 6.056 128.521 6.3811C128.673 6.70678 128.749 7.06787 128.749 7.46495C128.749 7.83666 128.69 8.16824 128.571 8.45971C128.453 8.75118 128.286 9.00488 128.071 9.22024C127.856 9.43559 127.6 9.61554 127.305 9.75892C127.009 9.90288 126.688 10.0038 126.342 10.0628L129.065 13.6837H127.837ZM127.151 6.20468C126.753 5.89552 126.195 5.74093 125.475 5.74093H122.731V9.35122H125.462C125.792 9.35122 126.097 9.30874 126.376 9.22437C126.656 9.1394 126.897 9.01845 127.1 8.8621C127.303 8.70516 127.462 8.51222 127.577 8.28389C127.691 8.05496 127.748 7.79654 127.748 7.50861C127.748 6.9481 127.549 6.51385 127.151 6.20468Z" fill="white"/>
</mask>
<g mask="url(#mask0_832_13987)">
<rect x="-15.3716" y="-10.9308" width="367.889" height="67.6342" rx="33.8171" fill="url(#paint0_linear_832_13987)"/>
</g>
<defs>
<linearGradient id="paint0_linear_832_13987" x1="169.122" y1="22.8863" x2="784.075" y2="18.9941" gradientUnits="userSpaceOnUse">
<stop stop-color="#2748D7"/>
<stop offset="1" stop-color="#0C194E"/>
</linearGradient>
</defs>
</svg>
