<svg width="26" height="26" viewBox="0 0 26 26" fill="none" xmlns="http://www.w3.org/2000/svg">
<rect x="0.5" y="0.5" width="25" height="25" rx="12.5" fill="white"/>
<rect x="0.5" y="0.5" width="25" height="25" rx="12.5" stroke="#E7EAF2"/>
<path d="M17.5051 8.8673C16.6765 8.48712 15.788 8.20701 14.859 8.04657C14.8421 8.04347 14.8251 8.05122 14.8164 8.06668C14.7022 8.26993 14.5756 8.53506 14.4869 8.74347C13.4877 8.59387 12.4937 8.59387 11.5149 8.74347C11.4263 8.53044 11.2951 8.26993 11.1803 8.06668C11.1716 8.05173 11.1547 8.04398 11.1378 8.04657C10.2093 8.20648 9.32079 8.48659 8.49169 8.8673C8.4845 8.8704 8.47836 8.87555 8.47427 8.88225C6.78894 11.4001 6.32724 13.8561 6.55372 16.2816C6.55474 16.2935 6.56141 16.3048 6.57063 16.3121C7.68256 17.1286 8.75968 17.6244 9.81677 17.953C9.83368 17.9581 9.85161 17.952 9.86237 17.938C10.1124 17.5965 10.3353 17.2365 10.5264 16.8578C10.5377 16.8357 10.5269 16.8093 10.5039 16.8006C10.1503 16.6665 9.81367 16.5029 9.48982 16.3172C9.4642 16.3023 9.46214 16.2656 9.48573 16.2481C9.55388 16.197 9.62205 16.1439 9.68713 16.0902C9.69891 16.0804 9.71531 16.0784 9.72915 16.0846C11.8567 17.0559 14.16 17.0559 16.2624 16.0846C16.2762 16.0779 16.2927 16.0799 16.3049 16.0897C16.37 16.1434 16.4382 16.197 16.5068 16.2481C16.5304 16.2656 16.5289 16.3023 16.5033 16.3172C16.1794 16.5065 15.8428 16.6664 15.4887 16.8C15.4656 16.8088 15.4554 16.8356 15.4667 16.8578C15.6619 17.2359 15.8848 17.596 16.1302 17.9375C16.1405 17.9519 16.1589 17.9581 16.1758 17.953C17.238 17.6244 18.3152 17.1286 19.4271 16.312C19.4368 16.3048 19.443 16.294 19.444 16.2821C19.7151 13.478 18.99 11.0421 17.5219 8.88276C17.5184 8.87555 17.5122 8.8704 17.5051 8.8673ZM10.8442 14.8047C10.2037 14.8047 9.67588 14.2167 9.67588 13.4945C9.67588 12.7723 10.1934 12.1842 10.8442 12.1842C11.5001 12.1842 12.0228 12.7774 12.0125 13.4945C12.0125 14.2167 11.4949 14.8047 10.8442 14.8047ZM15.1638 14.8047C14.5233 14.8047 13.9955 14.2167 13.9955 13.4945C13.9955 12.7723 14.5131 12.1842 15.1638 12.1842C15.8197 12.1842 16.3424 12.7774 16.3322 13.4945C16.3322 14.2167 15.8197 14.8047 15.1638 14.8047Z" fill="#343434"/>
</svg>
