<svg width="22" height="22" viewBox="0 0 22 22" fill="none" xmlns="http://www.w3.org/2000/svg">
<path d="M14.6667 20.8543H7.33333C3.9875 20.8543 2.0625 18.9293 2.0625 15.5835V6.41683C2.0625 3.071 3.9875 1.146 7.33333 1.146H14.6667C18.0125 1.146 19.9375 3.071 19.9375 6.41683V15.5835C19.9375 18.9293 18.0125 20.8543 14.6667 20.8543ZM7.33333 2.521C4.71167 2.521 3.4375 3.79516 3.4375 6.41683V15.5835C3.4375 18.2052 4.71167 19.4793 7.33333 19.4793H14.6667C17.2883 19.4793 18.5625 18.2052 18.5625 15.5835V6.41683C18.5625 3.79516 17.2883 2.521 14.6667 2.521H7.33333Z" fill="#8A97A9"/>
<path d="M16.9584 8.47917H15.1251C13.7317 8.47917 12.6042 7.35167 12.6042 5.95833V4.125C12.6042 3.74917 12.9159 3.4375 13.2917 3.4375C13.6676 3.4375 13.9792 3.74917 13.9792 4.125V5.95833C13.9792 6.59083 14.4926 7.10417 15.1251 7.10417H16.9584C17.3342 7.10417 17.6459 7.41583 17.6459 7.79167C17.6459 8.1675 17.3342 8.47917 16.9584 8.47917Z" fill="#8A97A9"/>
<path d="M10.9999 12.604H7.33325C6.95742 12.604 6.64575 12.2923 6.64575 11.9165C6.64575 11.5407 6.95742 11.229 7.33325 11.229H10.9999C11.3758 11.229 11.6874 11.5407 11.6874 11.9165C11.6874 12.2923 11.3758 12.604 10.9999 12.604Z" fill="#8A97A9"/>
<path d="M14.6666 16.271H7.33325C6.95742 16.271 6.64575 15.9593 6.64575 15.5835C6.64575 15.2077 6.95742 14.896 7.33325 14.896H14.6666C15.0424 14.896 15.3541 15.2077 15.3541 15.5835C15.3541 15.9593 15.0424 16.271 14.6666 16.271Z" fill="#8A97A9"/>
</svg>
