<svg width="21" height="20" viewBox="0 0 21 20" fill="none" xmlns="http://www.w3.org/2000/svg">
<g clip-path="url(#clip0_664_1018)">
<path d="M10.6667 20C16.1895 20 20.6667 15.5228 20.6667 10C20.6667 4.47715 16.1895 0 10.6667 0C5.14381 0 0.666656 4.47715 0.666656 10C0.666656 15.5228 5.14381 20 10.6667 20Z" fill="#F3BA2F"/>
<path fill-rule="evenodd" clip-rule="evenodd" d="M13.2602 11.0636L14.7687 12.5677L10.6681 16.664L6.57188 12.5677L8.08033 11.0636L10.6681 13.6514L13.2602 11.0636ZM10.6681 8.4715L12.1982 10.0016L10.6681 11.5318L9.14231 10.006V10.0016L9.41106 9.73288L9.5411 9.60284L10.6681 8.4715ZM5.50989 8.49317L7.01834 10.0016L5.50989 11.5057L4.00144 9.99729L5.50989 8.49317ZM15.8263 8.49317L17.3348 10.0016L15.8263 11.5057L14.3179 9.99729L15.8263 8.49317ZM10.6681 3.33496L14.7643 7.43119L13.2559 8.93964L10.6681 6.34753L8.08033 8.93531L6.57188 7.43119L10.6681 3.33496Z" fill="white"/>
</g>
<defs>
<clipPath id="clip0_664_1018">
<rect width="20" height="20" fill="white" transform="translate(0.666656)"/>
</clipPath>
</defs>
</svg>
