<svg width="22" height="22" viewBox="0 0 22 22" fill="none" xmlns="http://www.w3.org/2000/svg">
<path d="M9.15761 20.8541C8.97428 20.8541 8.82761 20.8174 8.71761 20.7716C8.35095 20.6341 7.72761 20.1849 7.72761 18.7641V12.8516H5.58261C4.35428 12.8516 3.91428 12.2741 3.75845 11.9349C3.60261 11.5866 3.46511 10.8807 4.27178 9.95492L11.2109 2.07158C12.1459 1.00825 12.9068 1.08158 13.2734 1.21908C13.6401 1.35658 14.2634 1.80575 14.2634 3.22658V9.13908H16.4084C17.6368 9.13908 18.0768 9.71658 18.2326 10.0557C18.3884 10.4041 18.5259 11.1099 17.7193 12.0357L10.7801 19.9191C10.1293 20.6616 9.56095 20.8541 9.15761 20.8541ZM12.7693 2.51158C12.7418 2.54825 12.5493 2.63991 12.2468 2.98825L5.30761 10.8716C5.05095 11.1649 5.01428 11.3482 5.01428 11.3849C5.03261 11.3941 5.19761 11.4857 5.58261 11.4857H8.41511C8.79095 11.4857 9.10261 11.7974 9.10261 12.1732V18.7732C9.10261 19.2316 9.18511 19.4332 9.22178 19.4882C9.24928 19.4516 9.44178 19.3599 9.74428 19.0116L16.6834 11.1282C16.9401 10.8349 16.9768 10.6516 16.9768 10.6149C16.9584 10.6057 16.7934 10.5141 16.4084 10.5141H13.5759C13.2001 10.5141 12.8884 10.2024 12.8884 9.82658V3.22658C12.8976 2.76825 12.8059 2.57575 12.7693 2.51158Z" fill="white"/>
</svg>
