<svg width="26" height="26" viewBox="0 0 26 26" fill="none" xmlns="http://www.w3.org/2000/svg">
<rect x="0.5" y="0.5" width="25" height="25" rx="12.5" fill="white"/>
<rect x="0.5" y="0.5" width="25" height="25" rx="12.5" stroke="#E7EAF2"/>
<path d="M15.6884 5.90918H10.0586C7.77059 5.90918 5.90918 7.77059 5.90918 10.0586V15.6884C5.90918 17.9763 7.77059 19.8378 10.0586 19.8378H15.6884C17.9763 19.8378 19.8378 17.9763 19.8378 15.6884V10.0586C19.8377 7.77059 17.9763 5.90918 15.6884 5.90918ZM18.4365 15.6884C18.4365 17.2061 17.2061 18.4365 15.6884 18.4365H10.0586C8.54081 18.4365 7.31039 17.2061 7.31039 15.6884V10.0586C7.31039 8.54078 8.54081 7.31039 10.0586 7.31039H15.6884C17.2061 7.31039 18.4365 8.54078 18.4365 10.0586V15.6884Z" fill="#343434"/>
<path d="M12.8734 9.27148C10.887 9.27148 9.271 10.8875 9.271 12.8739C9.271 14.8602 10.887 16.4763 12.8734 16.4763C14.8598 16.4763 16.4758 14.8603 16.4758 12.8739C16.4758 10.8875 14.8598 9.27148 12.8734 9.27148ZM12.8734 15.0751C11.6577 15.0751 10.6722 14.0896 10.6722 12.8739C10.6722 11.6582 11.6577 10.6727 12.8734 10.6727C14.0891 10.6727 15.0746 11.6582 15.0746 12.8739C15.0746 14.0896 14.0891 15.0751 12.8734 15.0751Z" fill="#343434"/>
<path d="M16.4828 10.161C16.9596 10.161 17.3461 9.77453 17.3461 9.29779C17.3461 8.82104 16.9596 8.43457 16.4828 8.43457C16.0061 8.43457 15.6196 8.82104 15.6196 9.29779C15.6196 9.77453 16.0061 10.161 16.4828 10.161Z" fill="#343434"/>
</svg>
