<svg width="22" height="22" viewBox="0 0 22 22" fill="none" xmlns="http://www.w3.org/2000/svg">
<path d="M13.9701 20.4143H13.8509C9.78089 20.4143 7.81922 18.8101 7.48005 15.2168C7.44339 14.8409 7.71839 14.5018 8.10339 14.4651C8.47922 14.4284 8.81839 14.7126 8.85505 15.0884C9.12089 17.9668 10.4776 19.0393 13.8601 19.0393H13.9792C17.7101 19.0393 19.0301 17.7193 19.0301 13.9884V8.01177C19.0301 4.28094 17.7101 2.96094 13.9792 2.96094H13.8601C10.4592 2.96094 9.10255 4.05177 8.85505 6.9851C8.80922 7.36094 8.49755 7.6451 8.10339 7.60844C7.71839 7.58094 7.44339 7.24177 7.47089 6.86594C7.78255 3.2176 9.75339 1.58594 13.8509 1.58594H13.9701C18.4709 1.58594 20.3959 3.51094 20.3959 8.01177V13.9884C20.3959 18.4893 18.4709 20.4143 13.9701 20.4143Z" fill="#8A97A9"/>
<path d="M13.6399 11.6875H1.83325C1.45742 11.6875 1.14575 11.3758 1.14575 11C1.14575 10.6242 1.45742 10.3125 1.83325 10.3125H13.6399C14.0158 10.3125 14.3274 10.6242 14.3274 11C14.3274 11.3758 14.0249 11.6875 13.6399 11.6875Z" fill="#8A97A9"/>
<path d="M11.5959 14.7585C11.4217 14.7585 11.2475 14.6943 11.11 14.5568C10.8442 14.291 10.8442 13.851 11.11 13.5852L13.695 11.0002L11.11 8.41518C10.8442 8.14935 10.8442 7.70935 11.11 7.44352C11.3759 7.17768 11.8159 7.17768 12.0817 7.44352L15.1525 10.5143C15.4184 10.7802 15.4184 11.2202 15.1525 11.486L12.0817 14.5568C11.9442 14.6943 11.77 14.7585 11.5959 14.7585Z" fill="#8A97A9"/>
</svg>
