<svg width="21" height="21" viewBox="0 0 21 21" fill="none" xmlns="http://www.w3.org/2000/svg">
<path d="M15.2167 19.3913C14.7751 19.3913 14.2084 19.2496 13.5001 18.8329L11.0084 17.3579C10.7501 17.2079 10.2501 17.2079 10.0001 17.3579L7.50006 18.8329C6.02506 19.7079 5.15839 19.3579 4.76672 19.0746C4.38339 18.7913 3.78339 18.0663 4.17506 16.3996L4.76672 13.8413C4.83339 13.5746 4.70006 13.1163 4.50006 12.9163L2.43339 10.8496C1.40006 9.81628 1.48339 8.93294 1.62506 8.49961C1.76672 8.06628 2.21672 7.29961 3.65006 7.05794L6.30839 6.61628C6.55839 6.57461 6.91672 6.30794 7.02506 6.08294L8.50006 3.14128C9.16672 1.79961 10.0417 1.59961 10.5001 1.59961C10.9584 1.59961 11.8334 1.79961 12.5001 3.14128L13.9667 6.07461C14.0834 6.29961 14.4417 6.56628 14.6917 6.60794L17.3501 7.04961C18.7917 7.29128 19.2417 8.05794 19.3751 8.49128C19.5084 8.92461 19.5917 9.80794 18.5667 10.8413L16.5001 12.9163C16.3001 13.1163 16.1751 13.5663 16.2334 13.8413L16.8251 16.3996C17.2084 18.0663 16.6167 18.7913 16.2334 19.0746C16.0251 19.2246 15.6917 19.3913 15.2167 19.3913ZM10.5001 15.9913C10.9084 15.9913 11.3167 16.0913 11.6417 16.2829L14.1334 17.7579C14.8584 18.1913 15.3167 18.1913 15.4917 18.0663C15.6667 17.9413 15.7917 17.4996 15.6084 16.6829L15.0167 14.1246C14.8584 13.4329 15.1167 12.5413 15.6167 12.0329L17.6834 9.96628C18.0917 9.55794 18.2751 9.15794 18.1917 8.88294C18.1001 8.60794 17.7167 8.38294 17.1501 8.29128L14.4917 7.84961C13.8501 7.74128 13.1501 7.22461 12.8584 6.64128L11.3917 3.70794C11.1251 3.17461 10.7917 2.85794 10.5001 2.85794C10.2084 2.85794 9.87506 3.17461 9.61672 3.70794L8.14172 6.64128C7.85006 7.22461 7.15006 7.74128 6.50839 7.84961L3.85839 8.29128C3.29172 8.38294 2.90839 8.60794 2.81672 8.88294C2.72506 9.15794 2.91672 9.56628 3.32506 9.96628L5.39172 12.0329C5.89172 12.5329 6.15006 13.4329 5.99172 14.1246L5.40006 16.6829C5.20839 17.5079 5.34172 17.9413 5.51672 18.0663C5.69172 18.1913 6.14172 18.1829 6.87506 17.7579L9.36672 16.2829C9.68339 16.0913 10.0917 15.9913 10.5001 15.9913Z" fill="#CBCFDD"/>
</svg>
