<svg width="26" height="26" viewBox="0 0 26 26" fill="none" xmlns="http://www.w3.org/2000/svg">
<rect x="0.5" y="0.5" width="25" height="25" rx="12.5" fill="white"/>
<rect x="0.5" y="0.5" width="25" height="25" rx="12.5" stroke="#E7EAF2"/>
<path d="M20.0909 7.22619L17.8479 18.5349C17.8479 18.5349 17.5344 19.3191 16.6716 18.9426L11.4723 14.9632C12.1711 14.335 17.5925 9.4609 17.8296 9.23987C18.1961 8.89779 17.9687 8.69421 17.5427 8.95291L9.53476 14.0384L6.44527 12.9983C6.44527 12.9983 5.95888 12.8257 5.91207 12.4493C5.86499 12.0729 6.46106 11.869 6.46106 11.869L19.0558 6.92815C19.0558 6.92815 20.0909 6.47334 20.0909 7.22619Z" fill="#343434"/>
</svg>
