<svg width="101" height="13" viewBox="0 0 101 13" fill="none" xmlns="http://www.w3.org/2000/svg">
<path d="M1.38533 9.472C2.40933 8.61867 3.22533 7.90933 3.83333 7.344C4.44133 6.768 4.948 6.17067 5.35333 5.552C5.75866 4.93333 5.96133 4.32533 5.96133 3.728C5.96133 3.184 5.83333 2.75733 5.57733 2.448C5.32133 2.13867 4.92666 1.984 4.39333 1.984C3.86 1.984 3.44933 2.16533 3.16133 2.528C2.87333 2.88 2.724 3.36533 2.71333 3.984H0.537328C0.579995 2.704 0.958662 1.73333 1.67333 1.072C2.39866 0.410666 3.316 0.079999 4.42533 0.079999C5.64133 0.079999 6.57466 0.405333 7.22533 1.056C7.876 1.696 8.20133 2.544 8.20133 3.6C8.20133 4.432 7.97733 5.22667 7.52933 5.984C7.08133 6.74133 6.56933 7.40267 5.99333 7.968C5.41733 8.52267 4.66533 9.19467 3.73733 9.984H8.45733V11.84H0.553328V10.176L1.38533 9.472ZM14.0288 0.832C15.2022 0.832 16.2315 1.06133 17.1168 1.52C18.0128 1.97867 18.7008 2.63467 19.1808 3.488C19.6715 4.33067 19.9168 5.312 19.9168 6.432C19.9168 7.552 19.6715 8.53333 19.1808 9.376C18.7008 10.208 18.0128 10.8533 17.1168 11.312C16.2315 11.7707 15.2022 12 14.0288 12H10.1248V0.832H14.0288ZM13.9488 10.096C15.1222 10.096 16.0288 9.776 16.6688 9.136C17.3088 8.496 17.6288 7.59467 17.6288 6.432C17.6288 5.26933 17.3088 4.36267 16.6688 3.712C16.0288 3.05067 15.1222 2.72 13.9488 2.72H12.3648V10.096H13.9488ZM26.3981 12.112C25.9927 12.112 25.6567 11.9893 25.3901 11.744C25.1341 11.488 25.0061 11.1733 25.0061 10.8C25.0061 10.4267 25.1341 10.1173 25.3901 9.872C25.6567 9.616 25.9927 9.488 26.3981 9.488C26.7927 9.488 27.1181 9.616 27.3741 9.872C27.6301 10.1173 27.7581 10.4267 27.7581 10.8C27.7581 11.1733 27.6301 11.488 27.3741 11.744C27.1181 11.9893 26.7927 12.112 26.3981 12.112ZM26.3981 5.488C25.9927 5.488 25.6567 5.36533 25.3901 5.12C25.1341 4.864 25.0061 4.54933 25.0061 4.176C25.0061 3.80267 25.1341 3.49333 25.3901 3.248C25.6567 2.992 25.9927 2.864 26.3981 2.864C26.7927 2.864 27.1181 2.992 27.3741 3.248C27.6301 3.49333 27.7581 3.80267 27.7581 4.176C27.7581 4.54933 27.6301 4.864 27.3741 5.12C27.1181 5.36533 26.7927 5.488 26.3981 5.488ZM41.0057 2.272H35.8217V5.008C36.0457 4.73067 36.3657 4.50667 36.7817 4.336C37.1977 4.15467 37.6404 4.064 38.1097 4.064C38.963 4.064 39.6617 4.25067 40.2057 4.624C40.7497 4.99733 41.1444 5.47733 41.3897 6.064C41.635 6.64 41.7577 7.25867 41.7577 7.92C41.7577 9.14667 41.4057 10.1333 40.7017 10.88C40.0084 11.6267 39.0164 12 37.7257 12C36.5097 12 35.539 11.696 34.8137 11.088C34.0884 10.48 33.6777 9.68533 33.5817 8.704H35.7577C35.8537 9.13067 36.067 9.472 36.3977 9.728C36.739 9.984 37.171 10.112 37.6937 10.112C38.323 10.112 38.7977 9.91467 39.1177 9.52C39.4377 9.12533 39.5977 8.60267 39.5977 7.952C39.5977 7.29067 39.4324 6.78933 39.1017 6.448C38.7817 6.096 38.307 5.92 37.6777 5.92C37.2297 5.92 36.8564 6.032 36.5577 6.256C36.259 6.48 36.0457 6.77867 35.9177 7.152H33.7737V0.304H41.0057V2.272ZM52.9826 0.832V12H50.7426V7.248H45.9586V12H43.7186V0.832H45.9586V5.424H50.7426V0.832H52.9826ZM59.9918 12.112C59.5865 12.112 59.2505 11.9893 58.9838 11.744C58.7278 11.488 58.5998 11.1733 58.5998 10.8C58.5998 10.4267 58.7278 10.1173 58.9838 9.872C59.2505 9.616 59.5865 9.488 59.9918 9.488C60.3865 9.488 60.7118 9.616 60.9678 9.872C61.2238 10.1173 61.3518 10.4267 61.3518 10.8C61.3518 11.1733 61.2238 11.488 60.9678 11.744C60.7118 11.9893 60.3865 12.112 59.9918 12.112ZM59.9918 5.488C59.5865 5.488 59.2505 5.36533 58.9838 5.12C58.7278 4.864 58.5998 4.54933 58.5998 4.176C58.5998 3.80267 58.7278 3.49333 58.9838 3.248C59.2505 2.992 59.5865 2.864 59.9918 2.864C60.3865 2.864 60.7118 2.992 60.9678 3.248C61.2238 3.49333 61.3518 3.80267 61.3518 4.176C61.3518 4.54933 61.2238 4.864 60.9678 5.12C60.7118 5.36533 60.3865 5.488 59.9918 5.488ZM66.6635 9.728V7.968L71.8955 0.48H74.5035V7.776H75.9115V9.728H74.5035V12H72.2635V9.728H66.6635ZM72.4075 2.88L69.1275 7.776H72.4075V2.88ZM85.1776 2.272H79.9936V5.008C80.2176 4.73067 80.5376 4.50667 80.9536 4.336C81.3696 4.15467 81.8122 4.064 82.2816 4.064C83.1349 4.064 83.8336 4.25067 84.3776 4.624C84.9216 4.99733 85.3162 5.47733 85.5616 6.064C85.8069 6.64 85.9296 7.25867 85.9296 7.92C85.9296 9.14667 85.5776 10.1333 84.8736 10.88C84.1802 11.6267 83.1882 12 81.8976 12C80.6816 12 79.7109 11.696 78.9856 11.088C78.2602 10.48 77.8496 9.68533 77.7536 8.704H79.9296C80.0256 9.13067 80.2389 9.472 80.5696 9.728C80.9109 9.984 81.3429 10.112 81.8656 10.112C82.4949 10.112 82.9696 9.91467 83.2896 9.52C83.6096 9.12533 83.7696 8.60267 83.7696 7.952C83.7696 7.29067 83.6042 6.78933 83.2736 6.448C82.9536 6.096 82.4789 5.92 81.8496 5.92C81.4016 5.92 81.0282 6.032 80.7296 6.256C80.4309 6.48 80.2176 6.77867 80.0896 7.152H77.9456V0.304H85.1776V2.272ZM100.066 0.832V12H97.8265V4.736L94.8345 12H93.1385L90.1305 4.736V12H87.8905V0.832H90.4345L93.9865 9.136L97.5385 0.832H100.066Z" fill="#343434"/>
</svg>
