<svg width="26" height="26" viewBox="0 0 26 26" fill="none" xmlns="http://www.w3.org/2000/svg">
<rect x="0.5" y="0.5" width="25" height="25" rx="12.5" fill="white"/>
<rect x="0.5" y="0.5" width="25" height="25" rx="12.5" stroke="#E7EAF2"/>
<path d="M10.5006 18C15.4207 18 18.1496 13.9941 17.9838 10.4951C18.3483 10.2425 18.6778 9.94652 18.9644 9.61418C18.9861 9.58847 18.9986 9.55671 18.9999 9.52365C19.0012 9.49058 18.9913 9.458 18.9717 9.43078C18.9521 9.40356 18.9238 9.38316 18.8911 9.37264C18.8584 9.36212 18.823 9.36205 18.7902 9.37243C18.5739 9.43907 18.3534 9.49259 18.13 9.53267C18.1124 9.53568 18.0942 9.5329 18.0783 9.52477C18.0625 9.51665 18.05 9.50366 18.0428 9.48789C18.0357 9.47213 18.0342 9.4545 18.0387 9.43785C18.0433 9.4212 18.0535 9.4065 18.0678 9.39611C18.3553 9.17804 18.5922 8.90496 18.7636 8.59425C18.7784 8.56594 18.7836 8.53387 18.7783 8.50259C18.7731 8.47131 18.7578 8.44239 18.7345 8.41992C18.7112 8.39745 18.6811 8.38256 18.6485 8.37737C18.6159 8.37217 18.5825 8.37692 18.5528 8.39095C18.1448 8.57737 17.7139 8.71387 17.2703 8.79726C16.9092 8.42811 16.4407 8.17158 15.9255 8.06099C15.4104 7.9504 14.8725 7.99085 14.3817 8.17709C13.8909 8.36332 13.4697 8.68675 13.173 9.10537C12.8763 9.52399 12.7177 10.0185 12.7178 10.5246C12.7185 10.6855 12.7343 10.846 12.765 11.0041C12.7672 11.0156 12.7667 11.0275 12.7635 11.0388C12.7603 11.0501 12.7544 11.0605 12.7463 11.0693C12.7382 11.0781 12.7282 11.085 12.7169 11.0894C12.7056 11.0939 12.6934 11.0959 12.6812 11.0952C10.7766 10.9784 8.99101 10.1667 7.69117 8.82678C7.65361 8.78682 7.60571 8.75707 7.55232 8.74054C7.49893 8.72401 7.44193 8.72129 7.38709 8.73264C7.33224 8.744 7.2815 8.76904 7.23999 8.80523C7.19847 8.84142 7.16765 8.88747 7.15065 8.93874C6.97103 9.41797 6.95153 9.93894 7.09484 10.4293C7.23815 10.9196 7.53717 11.355 7.95036 11.675C7.96376 11.6852 7.97328 11.6994 7.97745 11.7154C7.98162 11.7314 7.98021 11.7482 7.97343 11.7633C7.96666 11.7785 7.9549 11.791 7.93995 11.7991C7.925 11.8072 7.9077 11.8104 7.89069 11.8081C7.74029 11.7885 7.59203 11.756 7.44769 11.7109C7.39501 11.6941 7.33863 11.6907 7.28419 11.7013C7.22975 11.7119 7.17916 11.736 7.1375 11.7712C7.09476 11.8057 7.06273 11.8507 7.04491 11.9014C7.02708 11.9522 7.02416 12.0066 7.03645 12.0588C7.59397 14.1171 9.10389 13.8548 9.10389 14.0107C9.10389 14.1162 8.80524 14.1162 8.4049 14.1171C8.35072 14.1174 8.29751 14.131 8.25039 14.1566C8.20326 14.1822 8.16379 14.219 8.13577 14.2635C8.10775 14.308 8.09212 14.3586 8.09038 14.4105C8.08864 14.4625 8.10084 14.5139 8.12582 14.56C8.33652 14.9074 8.62996 15.202 8.98215 15.4198C9.33434 15.6376 9.73528 15.7724 10.1522 15.8131C10.1684 15.8143 10.1838 15.8202 10.1964 15.8301C10.209 15.84 10.2181 15.8533 10.2225 15.8683C10.2269 15.8833 10.2264 15.8992 10.2211 15.914C10.2157 15.9287 10.2058 15.9415 10.1926 15.9506C9.46437 16.4556 8.61313 16.773 7.72036 16.8724C7.65124 16.8777 7.58594 16.9049 7.53485 16.9499C7.48376 16.9948 7.44981 17.0548 7.43841 17.1204C7.42701 17.186 7.43882 17.2533 7.47195 17.3117C7.50508 17.3701 7.55763 17.4162 7.62124 17.4427C8.53221 17.812 9.51149 18.0016 10.5006 18Z" fill="#343434"/>
</svg>
